<?xml version="1.0" encoding="utf-8"?>
<!-- Generator: Adobe Illustrator 15.0.0, SVG Export Plug-In . SVG Version: 6.00 Build 0)  -->
<!DOCTYPE svg PUBLIC "-//W3C//DTD SVG 1.1//EN" "http://www.w3.org/Graphics/SVG/1.1/DTD/svg11.dtd">
<svg version="1.1" id="Layer_1" xmlns="http://www.w3.org/2000/svg" xmlns:xlink="http://www.w3.org/1999/xlink" x="0px" y="0px"
	 width="221px" height="321px" viewBox="0 0 221 321" enable-background="new 0 0 221 321" xml:space="preserve">
<path fill="#19548C" d="M92.34,103.174c1.066-1.801,2.162-3.545,3.279-5.232c10.307-15.614,22.893-26.887,39.275-36.92L114.354,0
	c-1.465,0.365-2.943,0.746-4.396,1.162c-11.752,3.213-23.635,8.176-34.872,14.65C56.43,26.582,41.242,40.391,29.312,56.748
	c-6.58,8.293-11.994,17.369-16.15,26.945c-6.91,16.633-13.521,43.065-13.147,72.076c0.267,7.521,1.801,33.869,10.647,53.893
	c0.328,0.745,0.672,1.361,1.021,1.87c0.344,1.075,0.678,1.991,0.998,2.728c0,0,4.383,9.563,8.578,16.819
	c40.762,70.62,122.217,103.116,197.672,84.97l-6.748-20.535l-48.396-147.949l17.664,147.865
	c-41.588-4.052-77.889-24.27-97.762-58.695c-22.174-38.426-18.701-85.846,4.895-127.264c1.082-1.899,2.207-3.787,3.369-5.656
	L92.34,103.174z"/>
</svg>
