<?xml version="1.0" encoding="utf-8"?>
<!-- Generator: Adobe Illustrator 15.0.0, SVG Export Plug-In . SVG Version: 6.00 Build 0)  -->
<!DOCTYPE svg PUBLIC "-//W3C//DTD SVG 1.1//EN" "http://www.w3.org/Graphics/SVG/1.1/DTD/svg11.dtd">
<svg version="1.1" id="Layer_1" xmlns="http://www.w3.org/2000/svg" xmlns:xlink="http://www.w3.org/1999/xlink" x="0px" y="0px"
	 width="410px" height="96.593px" viewBox="0 0 410 96.593" enable-background="new 0 0 410 96.593" xml:space="preserve">
<rect x="235.259" y="5.049" fill="#FFFFFF" width="13.297" height="69.495"/>
<path fill="#FFFFFF" d="M362.884,66.683c1.167,1.448,2.561,2.733,4.183,3.856c3.99,2.76,9.407,4.142,16.251,4.142
	c7.538,0,13.23-1.656,17.077-4.968c3.849-3.312,5.772-7.269,5.772-11.871c0-4.227-1.393-7.521-4.174-9.887
	c-2.812-2.333-7.765-4.306-14.857-5.915c-7.098-1.609-11.243-2.856-12.444-3.741c-0.885-0.663-1.327-1.468-1.327-2.414
	c0-1.104,0.508-2.005,1.521-2.698c1.521-0.979,4.038-1.469,7.555-1.469c2.787,0,4.933,0.523,6.438,1.572
	c1.505,1.047,2.524,2.557,3.145,4.509l9.421-8.872c-1.291-1.328-2.514-2.467-3.92-3.414c-3.341-2.25-8.446-3.374-15.317-3.374
	c-7.217,0-12.542,1.484-15.978,4.452c-3.435,2.97-5.152,6.633-5.152,10.991c0,4.832,1.986,8.605,5.96,11.321
	c2.87,1.958,9.665,4.122,20.389,6.489c2.3,0.536,3.78,1.12,4.442,1.752c0.631,0.663,0.947,1.499,0.947,2.51
	c0,1.483-0.583,2.666-1.748,3.551c-1.73,1.262-4.314,1.895-7.751,1.895c-3.118,0-5.543-0.665-7.275-1.995
	c-1.73-1.33-2.882-3.277-3.447-5.844L362.884,66.683z"/>
<path fill="#FFFFFF" d="M214.455,5.049v24.996c-1.484-2.062-3.41-3.732-5.777-5.018c-2.367-1.284-5.067-1.926-8.098-1.926
	c-4.138,0-7.876,1.088-11.225,3.266c-3.345,2.176-5.854,5.306-7.526,9.391c-1.673,4.084-2.512,8.634-2.512,13.646
	c0,5.142,0.926,9.69,2.772,13.647c1.847,3.958,4.453,7.041,7.814,9.248c3.362,2.208,7.052,2.244,11.062,2.244
	c6.189,0,10.88-1.418,14.069-6.393v6.393h7.959V5.049H214.455z M211.312,64.062c-2.611,3.041-5.788,4.562-9.524,4.562
	c-3.706,0-6.922-1.592-9.646-4.775s-4.086-7.989-4.086-14.418c0-6.651,1.275-11.521,3.825-14.608
	c2.549-3.09,5.724-4.634,9.523-4.634c3.898,0,7.178,1.606,9.838,4.821c2.658,3.215,3.989,8.258,3.989,15.129
	C215.232,56.379,213.925,61.021,211.312,64.062z"/>
<path fill="#FFFFFF" d="M299.842,30.543c-1.184-2.163-3.23-3.946-6.138-5.354c-2.908-1.405-7.333-2.107-13.274-2.107
	c-6.542,0-11.472,1.182-14.791,3.543c-2.059,1.465-3.672,3.333-4.977,5.782l8.657,6.304c0.761-1.425,1.684-2.495,2.882-3.349
	c1.931-1.375,4.799-2.062,8.604-2.062c2.776,0.13,4.716,0.674,5.812,1.627c1.267,1.104,1.897,3.002,1.897,5.593
	c-2.396,1.012-6.708,2.103-12.927,3.271c-4.609,0.884-8.137,1.917-10.584,3.104s-4.35,2.892-5.706,5.117
	c-1.357,2.229-2.037,4.762-2.037,7.604c0,4.296,1.489,7.85,4.466,10.659c2.979,2.812,7.047,4.218,12.213,4.218
	c2.932,0,5.688-0.559,8.271-1.675c2.225-0.961,4.332-1.846,6.323-3.499l-0.015,5.227h12.897l0.007-16.552l0.194-15.536
	C301.62,36.677,301.027,32.707,299.842,30.543z M288.519,51.589c0,3.189-0.173,5.354-0.521,6.491
	c-0.505,1.737-1.563,3.206-3.174,4.405c-2.182,1.579-4.472,2.369-6.87,2.369c-2.148,0-3.916-0.681-5.308-2.037
	c-1.39-1.356-2.084-2.969-2.084-4.833c0-1.896,0.868-3.458,2.604-4.688c1.138-0.759,3.555-1.531,7.249-2.321
	c3.695-0.79,6.396-1.47,8.102-2.037L288.519,51.589L288.519,51.589z"/>
<path fill="#FFFFFF" d="M353.428,29.778c-4.011-4.447-9.08-6.671-15.208-6.671c-5.622,0-10.485,3.601-14.591,8.275V5.049h-13.3
	v69.495h13.3v-7.394c2.021,2.812,3.461,3.693,6.258,5.175c2.797,1.479,5.635,2.219,8.511,2.219c5.845,0,10.814-2.327,14.907-6.979
	s6.14-11.284,6.14-19.895C359.445,39.344,357.439,34.226,353.428,29.778z M334.743,62.965c-6.249,0-11.312-6.433-11.312-14.367
	c0-7.937,5.062-14.368,11.312-14.369c6.247,0,11.312,6.434,11.312,14.369C346.056,56.532,340.99,62.965,334.743,62.965z"/>
<path fill="#FFFFFF" d="M167.758,23.034v7.274c-3.855-4.854-8.752-7.28-14.692-7.28c-4.456,0-8.334,1.104-11.636,3.315
	c-3.302,2.212-5.822,5.346-7.559,9.403c-1.738,4.059-2.608,8.485-2.608,13.286c0,6.979,1.898,12.964,5.693,17.952
	c3.795,4.99,9.153,7.485,16.079,7.485c5.564,0,10.215-2.201,13.945-6.602c0.031,5.546-0.175,9.186-0.618,10.917
	c-0.759,2.836-2.214,5.042-4.363,6.617c-2.151,1.575-5.204,2.362-9.159,2.362h-1.963v0.001c-3.955,0-7.008-0.787-9.16-2.361
	c-1.922-1.409-3.236-3.369-4.047-5.786l-6.455,5.98c1.595,2.645,3.877,4.779,6.847,6.408c3.457,1.896,7.718,2.828,12.771,2.828
	l2.062,0.016c5.05,0,9.303-0.946,12.76-2.844c3.457-1.896,5.982-4.479,7.576-7.749c1.593-3.271,2.393-8.822,2.393-16.658V23.034
	H167.758z M163.674,62.869c-2.657,3.011-5.947,4.517-9.87,4.517c-3.952,0-7.242-1.514-9.868-4.541
	c-2.625-3.026-3.938-7.836-3.938-14.426c0-6.053,1.329-10.618,3.983-13.691c2.657-3.074,5.885-4.611,9.681-4.611
	c3.857,0,7.155,1.561,9.893,4.683c2.736,3.121,4.104,7.758,4.104,13.906C167.659,55.135,166.331,59.858,163.674,62.869z"/>
<text transform="matrix(1 0 0 1 233.5002 102.6565)" display="none" enable-background="new    " font-family="'FrutigerCE-Italic'" font-size="31.4153">begin it now</text>
<path fill="#FFFFFF" d="M73.865,57.091c-0.279,0.472-0.566,0.929-0.859,1.371c-2.701,4.093-6,7.047-10.294,9.677l5.384,15.993
	c0.384-0.095,0.771-0.195,1.152-0.304c3.08-0.842,6.195-2.143,9.14-3.84c4.89-2.823,8.87-6.442,11.997-10.729
	c1.725-2.174,3.144-4.552,4.232-7.062c1.812-4.359,3.544-11.288,3.447-18.891c-0.07-1.971-0.472-8.877-2.791-14.125
	c-0.086-0.195-0.176-0.357-0.268-0.49c-0.09-0.282-0.178-0.522-0.262-0.715c0,0-1.148-2.506-2.248-4.408
	C81.812,5.059,60.463-3.458,40.687,1.298l1.768,5.382L55.14,45.456L50.51,6.702c10.9,1.062,20.414,6.361,25.623,15.384
	c5.812,10.071,4.901,22.499-1.283,33.355c-0.283,0.498-0.578,0.992-0.883,1.483L73.865,57.091z"/>
<path fill="#FFFFFF" d="M28.511,37.765c0.279-0.473,0.564-0.93,0.858-1.372c2.7-4.093,6-7.047,10.294-9.676L34.28,10.724
	c-0.385,0.094-0.771,0.194-1.15,0.302c-3.082,0.843-6.199,2.144-9.142,3.842c-4.89,2.822-8.87,6.44-11.995,10.729
	c-1.728,2.172-3.146,4.551-4.234,7.062c-1.812,4.358-3.543,11.289-3.449,18.89C4.38,53.517,4.78,60.425,7.1,65.671
	c0.087,0.196,0.176,0.359,0.269,0.491c0.09,0.281,0.178,0.522,0.264,0.715c0,0,1.146,2.506,2.246,4.407
	C20.566,89.796,41.915,98.312,61.69,93.555l-1.766-5.381L47.238,49.398l4.631,38.753c-10.9-1.062-20.416-6.36-25.624-15.383
	c-5.813-10.069-4.9-22.5,1.28-33.355c0.285-0.498,0.579-0.993,0.887-1.482L28.511,37.765z"/>
</svg>
