<?xml version="1.0" encoding="utf-8"?>
<!-- Generator: Adobe Illustrator 15.0.0, SVG Export Plug-In . SVG Version: 6.00 Build 0)  -->
<!DOCTYPE svg PUBLIC "-//W3C//DTD SVG 1.1//EN" "http://www.w3.org/Graphics/SVG/1.1/DTD/svg11.dtd">
<svg version="1.1" id="Isolation_Mode" xmlns="http://www.w3.org/2000/svg" xmlns:xlink="http://www.w3.org/1999/xlink" x="0px"
	 y="0px" width="51.054px" height="68.238px" viewBox="0 0 51.054 68.238" enable-background="new 0 0 51.054 68.238"
	 xml:space="preserve">
<path fill-rule="evenodd" clip-rule="evenodd" fill="#FFFFFF" d="M44.426,51.118c-6.755-0.534-13.569,0.059-20.383-0.534
	c-3.259-0.355-5.925-3.259-6.518-6.399c-0.414-3.259-0.237-6.577-0.355-9.895c9.066-0.119,18.132,0.414,27.138-0.297
	c4.385-0.711,7.762-5.807,6.458-10.132c-0.415-3.438-3.496-6.104-6.814-6.637c-8.829-0.415-17.716-0.06-26.545-0.118
	c-0.059-3.497-0.059-7.052-0.355-10.547c-0.652-4.444-5.748-7.525-10.014-6.281c-4.681,0.711-7.644,5.807-6.933,10.31
	c0,10.843-0.237,21.746,0.119,32.589C0.165,53.784,7.808,63.797,17.94,66.878c6.696,2.073,13.806,1.126,20.68,1.244
	c3.733,0,8.473,0.118,10.606-3.674C53.196,60.064,50.292,52.006,44.426,51.118L44.426,51.118z"/>
</svg>
