<?xml version="1.0" encoding="utf-8"?>
<!-- Generator: Adobe Illustrator 15.0.0, SVG Export Plug-In . SVG Version: 6.00 Build 0)  -->
<!DOCTYPE svg PUBLIC "-//W3C//DTD SVG 1.1//EN" "http://www.w3.org/Graphics/SVG/1.1/DTD/svg11.dtd">
<svg version="1.1" id="Layer_1" xmlns="http://www.w3.org/2000/svg" xmlns:xlink="http://www.w3.org/1999/xlink" x="0px" y="0px"
	 width="221px" height="321px" viewBox="0 0 221 321" enable-background="new 0 0 221 321" xml:space="preserve">
	<defs>
		<mask id="mask" maskUnits="userSpaceOnUse">
			<path id="maskbluewow" fill="#000000" d="M92.354,103.176c1.066-1.805,2.154-3.549,3.275-5.235c10.3-15.619,22.893-26.888,39.276-36.92L114.364,0
	c-1.468,0.357-2.939,0.739-4.386,1.151C98.22,4.369,86.326,9.332,75.096,15.812C56.439,26.578,41.255,40.383,29.331,56.749
	c-6.595,8.287-12.005,17.364-16.156,26.946c-6.917,16.627-13.519,43.074-13.161,72.073c0.269,7.511,1.792,33.871,10.646,53.887
	c0.332,0.745,0.671,1.372,1.028,1.871c0.343,1.073,0.678,1.993,1.006,2.727c0,0,4.371,9.562,8.57,16.82
	c40.775,70.632,122.235,103.125,197.685,84.975l-6.736-20.534l-48.406-147.951l17.673,147.863
	c-41.592-4.05-77.898-24.267-97.77-58.693c-22.181-38.421-18.697-85.85,4.881-127.267c1.089-1.9,2.21-3.79,3.388-5.655
	L92.354,103.176z"/>
		</mask>
	</defs>
	<use xlink:href="#maskbluewow"/>
</svg>