<?xml version="1.0" encoding="utf-8"?>
<!-- Generator: Adobe Illustrator 15.0.0, SVG Export Plug-In . SVG Version: 6.00 Build 0)  -->
<!DOCTYPE svg PUBLIC "-//W3C//DTD SVG 1.1//EN" "http://www.w3.org/Graphics/SVG/1.1/DTD/svg11.dtd">
<svg version="1.1" id="Layer_1" xmlns="http://www.w3.org/2000/svg" xmlns:xlink="http://www.w3.org/1999/xlink" x="0px" y="0px"
	 width="221px" height="321px" viewBox="0 0 221 321" enable-background="new 0 0 221 321" xml:space="preserve">
	<path fill="#d62027" d="M126.592,217.826c-1.066,1.801-2.162,3.545-3.279,5.232c-10.307,15.615-22.893,26.887-39.276,36.92L104.578,321
	c1.465-0.365,2.943-0.746,4.396-1.162c11.752-3.213,23.635-8.176,34.872-14.65c18.656-10.77,33.844-24.578,45.773-40.936
	c6.58-8.293,11.994-17.369,16.15-26.945c6.91-16.633,13.521-43.066,13.148-72.076c-0.266-7.521-1.801-33.87-10.648-53.893
	c-0.328-0.745-0.672-1.362-1.021-1.87c-0.344-1.075-0.678-1.992-0.998-2.728c0,0-4.383-9.563-8.578-16.819
	C156.91,19.301,75.455-13.195,0,4.951l6.748,20.536l48.397,147.949L37.48,25.57c41.589,4.052,77.889,24.27,97.762,58.696
	c22.174,38.426,18.701,85.845-4.895,127.263c-1.082,1.9-2.207,3.787-3.369,5.656L126.592,217.826z"/>
</svg>
