<?xml version="1.0" encoding="utf-8"?>
<!-- Generator: Adobe Illustrator 15.0.0, SVG Export Plug-In . SVG Version: 6.00 Build 0)  -->
<!DOCTYPE svg PUBLIC "-//W3C//DTD SVG 1.1//EN" "http://www.w3.org/Graphics/SVG/1.1/DTD/svg11.dtd">
<svg version="1.1" id="Layer_1" xmlns="http://www.w3.org/2000/svg" xmlns:xlink="http://www.w3.org/1999/xlink" x="0px" y="0px"
	 width="30px" height="30px" viewBox="0 0 30 30" enable-background="new 0 0 30 30" xml:space="preserve">
<g>
	<path fill="#FFFFFF" d="M14.551,19.121v-5.375c0-0.887-0.393-1.484-1.365-1.484c-0.802,0-1.553,0.546-1.911,1.092v5.767H9.483
		v-5.375c0-0.887-0.375-1.484-1.349-1.484c-0.802,0-1.536,0.563-1.911,1.092v5.767H4.432v-8.241h1.792v1.109
		c0.359-0.495,1.434-1.314,2.697-1.314c1.228,0,1.979,0.614,2.252,1.501c0.461-0.734,1.553-1.501,2.798-1.501
		c1.502,0,2.373,0.819,2.373,2.491v5.955H14.551z"/>
	<path fill="#FFFFFF" d="M17.343,14.992c0-2.389,1.74-4.317,4.181-4.317c2.475,0,4.045,1.876,4.045,4.47v0.443H19.22
		c0.137,1.229,1.058,2.27,2.611,2.27c0.819,0,1.758-0.324,2.354-0.922l0.819,1.178c-0.836,0.785-2.048,1.212-3.345,1.212
		C19.168,19.326,17.343,17.602,17.343,14.992z M21.507,12.142c-1.519,0-2.236,1.178-2.304,2.167h4.642
		C23.793,13.336,23.127,12.142,21.507,12.142z"/>
</g>
</svg>
