<?xml version="1.0" standalone="no"?>
<!DOCTYPE svg PUBLIC "-//W3C//DTD SVG 1.1//EN" "http://www.w3.org/Graphics/SVG/1.1/DTD/svg11.dtd" >
<svg xmlns="http://www.w3.org/2000/svg">
<metadata></metadata>
<defs>
<font id="Meta-BoldRegular" horiz-adv-x="1024" >
<font-face units-per-em="2048" ascent="1638" descent="-410" />
<missing-glyph horiz-adv-x="681" />
<glyph horiz-adv-x="0" />
<glyph horiz-adv-x="2048" />
<glyph unicode=" " horiz-adv-x="681" d="M0 0z" />
<glyph unicode="!" horiz-adv-x="512" d="M88 143q0 71 50 120.5t120 49.5q69 0 118.5 -50t49.5 -120t-50.5 -120t-121.5 -50q-69 0 -117.5 49.5t-48.5 120.5zM90 1407l328 47l-58 -1001h-208z" />
<glyph unicode="&#x22;" horiz-adv-x="1064" d="M166 872v578h258v-578h-258zM641 872v578h258v-578h-258z" />
<glyph unicode="#" horiz-adv-x="1212" d="M92 412v184h197l35 258h-172v184h196l58 412h198l-57 -412h203l57 412h199l-58 -412h172v-184h-196l-35 -258h172v-184h-197l-57 -412h-199l58 412h-203l-57 -412h-199l57 412h-172zM487 596h203l35 258h-203z" />
<glyph unicode="$" horiz-adv-x="1171" d="M23 98l106 224q110 -58 200.5 -86.5t190.5 -28.5q123 0 186.5 49.5t63.5 144.5q0 137 -186 185l-158 43q-107 30 -175 73t-106 107q-59 95 -59 217q0 176 117 294.5t311 141.5v148h176v-150q222 -22 381 -137l-135 -205q-180 109 -332 109q-88 0 -143 -46t-55 -118 q0 -56 34 -87t123 -56l172 -48q175 -47 268 -156t93 -267q0 -196 -135 -324.5t-363 -151.5v-166h-176v166q-213 19 -399 125z" />
<glyph unicode="%" horiz-adv-x="1675" d="M49 1087q0 160 95 258.5t251 98.5q165 0 262 -103q91 -91 91 -249q0 -169 -97 -263t-256 -94q-158 0 -252 95.5t-94 256.5zM272 1094q0 -112 23 -154q32 -51 102 -51q65 0 94 49t29 158q0 126 -41 164q-32 32 -86 32q-38 0 -62.5 -14.5t-37 -43t-17 -61t-4.5 -79.5z M379 0l745 1423h195l-746 -1423h-194zM948 332q0 160 95 258t251 98q166 0 262 -102q91 -91 91 -250q0 -168 -97 -262t-256 -94q-158 0 -252 95.5t-94 256.5zM1171 338q0 -112 23 -154q32 -51 102 -51q65 0 94 49t29 158q0 126 -41 164q-33 33 -86 33q-71 0 -96 -51 t-25 -148z" />
<glyph unicode="&#x26;" horiz-adv-x="1464" d="M100 358q0 236 256 355q-102 78 -133 145q-33 72 -33 162q0 152 114.5 248t295.5 96q183 0 299.5 -90.5t116.5 -233.5q0 -116 -70 -196q-31 -34 -71 -62.5t-109 -64.5l-18 -10l237 -226q12 46 14.5 77.5t4.5 123.5v14h229v-12q0 -231 -66 -381l306 -303h-381l-86 86 q-69 -61 -162.5 -88t-229.5 -27q-246 0 -380 101t-134 286zM393 375q0 -97 60.5 -150t169.5 -53q148 0 215 70l-334 321q-111 -67 -111 -188zM471 1040q0 -44 21 -78.5t86 -101.5l16 -16q135 69 135 192q0 60 -36 99t-91 39q-59 0 -95 -37t-36 -97z" />
<glyph unicode="'" horiz-adv-x="606" d="M174 872v578h258v-578h-258z" />
<glyph unicode="(" horiz-adv-x="657" d="M123 659q0 257 51 427.5t174 304.5q126 135 297 208l72 -161q-75 -54 -111 -90q-98 -98 -143 -215t-57 -302q-5 -148 -5 -167q0 -136 17 -316q22 -205 96 -336q38 -69 83.5 -112t123.5 -86l-72 -160q-149 51 -262 160.5t-176 263.5q-40 99 -64 257.5t-24 323.5z" />
<glyph unicode=")" horiz-adv-x="659" d="M-61 -182q99 71 164 151t102 187q24 71 37.5 195t13.5 245q0 145 -16 311q-22 206 -91 332t-210 203l71 160q150 -53 263 -162t176 -264q62 -160 79 -422q4 -57 4 -154q0 -263 -50 -431t-175 -304q-125 -137 -299 -209z" />
<glyph unicode="*" horiz-adv-x="987" d="M57 1069l66 195l268 -97v283h209v-283l268 88l62 -194l-268 -86l169 -234l-169 -125l-173 236l-165 -225l-166 125l172 223z" />
<glyph unicode="+" horiz-adv-x="1363" d="M121 492v258h432v432h258v-432h432v-258h-432v-433h-258v433h-432z" />
<glyph unicode="," horiz-adv-x="546" d="M68 -182q67 15 107 47t40 69q0 20 -11 33.5t-42 32.5q-80 48 -80 143q0 73 52 124.5t126 51.5q89 0 147 -69t58 -176q0 -133 -80 -236t-209 -135z" />
<glyph unicode="-" horiz-adv-x="692" d="M102 442v238h492v-238h-492z" />
<glyph unicode="." horiz-adv-x="546" d="M94 150q0 74 52 126t126 52q75 0 129 -52.5t54 -125.5q0 -75 -53.5 -129t-127.5 -54q-75 0 -127.5 54t-52.5 129z" />
<glyph unicode="/" horiz-adv-x="686" d="M-20 -315l548 1880h181l-549 -1880h-180z" />
<glyph unicode="0" horiz-adv-x="1095" d="M63 520q0 247 135 398t353 151q223 0 354 -148t131 -397q0 -247 -135 -398t-352 -151q-223 0 -354.5 148.5t-131.5 396.5zM365 526q0 -105 13.5 -176t40 -108t57.5 -51.5t73 -14.5q100 0 143 88.5t43 253.5q0 105 -13.5 176t-40 108t-57.5 51.5t-73 14.5 q-100 0 -143 -88.5t-43 -253.5z" />
<glyph unicode="1" horiz-adv-x="919" d="M100 782l396 287h184v-846h164v-223h-649v223h221v531q-125 -77 -246 -119z" />
<glyph unicode="2" horiz-adv-x="1099" d="M76 879q114 101 238 151.5t278 50.5q182 0 290.5 -92t108.5 -244q0 -105 -50 -184t-142 -147q-115 -86 -334 -195q75 10 199 10h366l-59 -229h-854v250q12 6 76 35.5t135 70.5q104 59 174 108t109 90.5t55 76t16 71.5q0 66 -45 102t-119 36q-65 0 -128 -30t-150 -101z " />
<glyph unicode="3" horiz-adv-x="1095" d="M47 899q96 75 223.5 123.5t259.5 48.5q192 0 317.5 -101t125.5 -255q0 -83 -35.5 -152t-99.5 -112q-38 -23 -76 -37q115 -38 179.5 -121t64.5 -191q0 -140 -91.5 -249t-255.5 -169.5t-374 -60.5q-92 0 -170 10l-66 191q74 -14 156 -14q213 0 346 87.5t133 227.5 q0 51 -24.5 93.5t-65.5 62.5q-59 24 -191 24q-55 0 -84 -2h-20v229q64 -8 141 -8q228 0 228 162q0 69 -44 111.5t-130 42.5q-166 0 -304 -115z" />
<glyph unicode="4" horiz-adv-x="1095" d="M74 14v187l395 874h283l-295 -663q0 -1 -9.5 -20.5t-19 -38t-21.5 -41.5t-23 -40.5t-19 -25.5q20 4 43 4h231l49 -2q-2 27 -2 37q0 79 14 219l23 239l215 50v-363q0 -90 -6 -182q40 2 65 2h86v-236h-92l-63 4q10 -26 10 -73v-289l-260 -33v346l4 51q-25 -6 -66 -6h-542z " />
<glyph unicode="5" horiz-adv-x="1095" d="M147 -160q109 -28 193 -28q163 0 267 83.5t104 215.5q0 98 -62 157.5t-162 59.5q-114 0 -299 -58l66 777h698l-41 -234h-401l-29 -283q59 11 97 11q190 0 310 -111.5t120 -286.5q0 -227 -181.5 -373.5t-464.5 -146.5q-72 0 -155 15z" />
<glyph unicode="6" horiz-adv-x="1095" d="M59 549q0 159 54 295q70 182 218.5 322t350.5 233q80 40 186 74l60 -197l-10 -4q-110 -38 -180 -74t-130 -86q-71 -57 -127.5 -138t-85.5 -171q82 67 219 67q122 0 223 -56.5t158.5 -156t57.5 -219.5q0 -130 -63.5 -237.5t-173.5 -168.5t-243 -61q-111 0 -206.5 43 t-163 119t-106 183.5t-38.5 232.5zM358 459q0 -130 54 -203.5t149 -73.5q92 0 147.5 68.5t55.5 183.5q0 99 -50 157t-136 58q-96 0 -213 -67q0 -11 -3 -17q-4 -78 -4 -106z" />
<glyph unicode="7" horiz-adv-x="1095" d="M98 799l62 248h854l-45 -240q-109 -155 -203 -330q-211 -411 -252 -627l-35 -184l-301 -76q64 268 148 492q76 212 180 412q92 179 190 313q-31 -8 -82 -8h-516z" />
<glyph unicode="8" horiz-adv-x="1095" d="M20 352q0 115 67.5 211.5t174.5 134.5q-34 10 -73.5 42t-67.5 71q-62 87 -62 197q0 169 136 273.5t356 104.5q207 0 339 -99.5t132 -256.5q0 -105 -72 -188t-192 -115q59 -17 121 -53t106 -78q90 -84 90 -221q0 -139 -92 -246.5t-242 -144.5q-103 -25 -215 -25 q-194 0 -323 76q-183 112 -183 317zM326 373q0 -97 62.5 -154t168.5 -57q92 0 150.5 49t58.5 127q0 95 -78 147q-81 53 -231 105q-131 -75 -131 -217zM342 1032q0 -49 28.5 -84.5t96.5 -70.5q51 -25 84 -39q166 85 166 200q0 71 -48.5 109.5t-138.5 38.5q-85 0 -136.5 -42.5 t-51.5 -111.5z" />
<glyph unicode="9" horiz-adv-x="1095" d="M55 604q0 207 140.5 343t355.5 136q229 0 359 -149t130 -410q0 -409 -335 -692q-95 -79 -211 -146.5t-224 -105.5l-149 168q166 43 330.5 176t210.5 262q-82 -39 -166 -39q-188 0 -314.5 131t-126.5 326zM352 612q0 -110 56.5 -176.5t150.5 -66.5q51 0 87.5 17t76.5 58 q20 70 20 154q0 129 -53 201.5t-145 72.5q-88 0 -140.5 -71t-52.5 -189z" />
<glyph unicode=":" horiz-adv-x="622" d="M133 139q0 75 52.5 129t125.5 54q74 -2 125 -55t51 -128q0 -72 -52 -122t-126 -50q-72 0 -124 50t-52 122zM137 752q0 73 51 125.5t123 54.5q73 0 125.5 -52t52.5 -126q0 -73 -52 -124.5t-126 -51.5q-72 0 -123 51t-51 123z" />
<glyph unicode=";" horiz-adv-x="620" d="M106 -182q65 15 105.5 47t40.5 69q0 19 -9.5 32t-37.5 30q-86 52 -86 143q0 77 51.5 128.5t128.5 51.5q89 0 147 -70t58 -177q0 -131 -82 -234.5t-209 -134.5zM125 754q0 74 50 126.5t122 53.5q74 0 127 -52.5t53 -125.5q0 -72 -51 -124t-123 -52q-74 0 -126 51t-52 123z " />
<glyph unicode="&#x3c;" horiz-adv-x="890" d="M115 612l493 637l215 -188l-344 -449l344 -452l-215 -185z" />
<glyph unicode="=" horiz-adv-x="1363" d="M121 295v258h1122v-258h-1122zM121 688v258h1122v-258h-1122z" />
<glyph unicode="&#x3e;" horiz-adv-x="890" d="M98 160l344 452l-344 449l215 188l494 -637l-494 -637z" />
<glyph unicode="?" d="M113 1288q23 24 55.5 47.5t81.5 49.5t117.5 42.5t142.5 16.5q163 0 276 -93t113 -249q0 -66 -17.5 -119.5t-50.5 -91t-57.5 -57t-62.5 -43.5q-154 -99 -158 -267q0 -25 4 -71h-235l-11 53q-23 123 21 216.5t160 176.5q6 4 29 20t32 23t27 23.5t25.5 29t14.5 31.5t7 39 q0 71 -47.5 106t-120.5 35q-21 0 -41.5 -3t-36 -7t-33.5 -12t-28.5 -13.5t-26 -16t-21.5 -15t-19 -15.5t-15 -12zM299 143q0 71 49.5 120.5t120.5 49.5q69 0 118.5 -50t49.5 -120t-50.5 -120t-121.5 -50q-69 0 -117.5 49.5t-48.5 120.5z" />
<glyph unicode="@" horiz-adv-x="1638" d="M66 723q0 160 62 302.5t167 243.5t249 159.5t304 58.5q109 0 213.5 -28t197 -85t162.5 -136t111 -189t41 -236q0 -90 -19 -165t-49.5 -125.5t-72 -89.5t-83.5 -61t-87.5 -36t-79.5 -18.5t-64 -4.5q-80 0 -120 33t-42 78h-4q-107 -111 -262 -111q-132 0 -213.5 95.5 t-81.5 248.5q0 121 48.5 225.5t143.5 170t218 65.5q83 0 137 -27.5t84 -89.5h4l17 93h192l-76 -404q-18 -88 -18 -135q0 -57 55 -57q72 0 124 78t52 227q0 160 -69 274.5t-188.5 170t-276.5 55.5q-253 0 -410.5 -163t-157.5 -417q0 -175 78.5 -307t215 -200.5t309.5 -68.5 q231 0 387 125h225q-107 -149 -273 -229t-356 -80q-217 0 -398 96.5t-288.5 271.5t-107.5 392zM616 680q0 -77 32 -129.5t110 -52.5q61 0 105.5 22t67 60t32.5 78.5t10 86.5q0 85 -39 137t-113 52q-92 0 -148.5 -73t-56.5 -181z" />
<glyph unicode="A" horiz-adv-x="1167" d="M-27 0l467 1427h310l448 -1427h-307l-100 338h-418l-101 -338h-299zM442 575h279q-9 12 -66 244t-69 295q-103 -414 -144 -539z" />
<glyph unicode="B" horiz-adv-x="1208" d="M141 0v1425h482q131 0 208.5 -22.5t141.5 -79.5q117 -102 117 -254q0 -143 -97 -240q-31 -30 -56.5 -44t-74.5 -29q283 -85 283 -359q0 -75 -23.5 -142.5t-68.5 -121.5t-117.5 -88.5t-163.5 -40.5q-90 -4 -182 -4h-449zM424 854h170q91 0 123 18q29 15 51.5 60t22.5 88 q0 45 -22.5 84.5t-59.5 58.5q-48 19 -119 19h-166v-328zM428 233h186q87 0 134 33q33 25 53 70.5t20 95.5q0 61 -29 109t-75 65q-42 12 -111 12h-178v-385z" />
<glyph unicode="C" horiz-adv-x="1095" d="M63 682q0 261 97 442q83 155 228 242.5t317 87.5q105 0 203 -31t157 -82l-129 -194q-109 80 -227 80q-72 0 -138 -33t-104 -90q-80 -119 -80 -367q0 -147 13.5 -235t45.5 -146q87 -159 275 -159q129 0 244 92l131 -180q-85 -69 -180 -101.5t-216 -32.5q-291 0 -464 197 q-173 194 -173 510z" />
<glyph unicode="D" horiz-adv-x="1243" d="M137 0v1415h287q134 0 248 -8q179 -15 311 -141q195 -192 195 -568q0 -175 -57.5 -325t-170.5 -249.5t-262 -115.5q-106 -8 -205 -8h-346zM428 233h154q141 0 207.5 106.5t66.5 332.5q0 75 -4 134t-15 121.5t-32 107t-53 81.5t-81 55.5t-112 18.5h-131v-957z" />
<glyph unicode="E" d="M139 0v1423h811l-37 -233h-487v-330h408v-233h-404v-381h539v-246h-830z" />
<glyph unicode="F" horiz-adv-x="913" d="M141 0v1419h772l-32 -231h-453v-326h363v-233h-363v-629h-287z" />
<glyph unicode="G" horiz-adv-x="1241" d="M57 698q0 450 297 648q149 100 346 100q265 0 453 -164l-152 -178q-133 110 -296 110q-131 0 -205 -71q-68 -65 -94.5 -176t-26.5 -283q0 -299 106 -405q83 -80 224 -80q97 0 161 34v324h-217l-37 234h551v-680q-214 -127 -473 -127q-315 0 -485 217q-79 100 -115.5 219 t-36.5 278z" />
<glyph unicode="H" horiz-adv-x="1277" d="M143 0v1423h285v-553h410v553h290v-1423h-290v635h-410v-635h-285z" />
<glyph unicode="I" horiz-adv-x="585" d="M145 0v1423h299v-1423h-299z" />
<glyph unicode="J" horiz-adv-x="581" d="M-35 -188q54 33 99.5 80.5t66.5 91.5q17 38 23 92t6 170v1177h291v-1147q0 -128 -4.5 -178.5t-16.5 -99.5q-19 -82 -76 -152.5t-121 -112.5t-135 -69z" />
<glyph unicode="K" horiz-adv-x="1245" d="M141 0v1423h293v-649l406 649h352l-455 -659l506 -764h-377l-432 743v-743h-293z" />
<glyph unicode="L" horiz-adv-x="987" d="M152 0v1423h292v-1185h510l-51 -238h-751z" />
<glyph unicode="M" horiz-adv-x="1646" d="M82 0l133 1423h371l186 -712q36 -135 49 -217q22 119 51 223l193 706h375l127 -1423h-283l-53 760q-12 180 -12 227q-18 -92 -52 -209l-225 -778h-252l-203 748l-57 247q0 -105 -10 -252l-49 -743h-289z" />
<glyph unicode="N" horiz-adv-x="1273" d="M143 0v1423h318l272 -569q104 -219 156 -403q-19 216 -23 391l-6 581h273v-1423h-299l-244 545q-166 378 -193 467q10 -120 15 -404l8 -608h-277z" />
<glyph unicode="O" horiz-adv-x="1349" d="M55 707q0 230 85 405t237 260q131 70 295 70q284 0 448 -194t164 -529q0 -242 -81.5 -416t-235.5 -260q-65 -35 -130.5 -50.5t-154.5 -15.5q-161 0 -271 47.5t-192 153.5q-164 209 -164 529zM375 707q0 -366 127 -461q67 -49 170 -49q149 0 215.5 121t66.5 393 q0 214 -36 329q-10 30 -28.5 59t-47.5 58t-74.5 46.5t-99.5 17.5q-72 0 -132.5 -34t-89.5 -91q-71 -133 -71 -389z" />
<glyph unicode="P" horiz-adv-x="1171" d="M137 0v1427h375q170 0 249 -16t146 -53q100 -55 152.5 -150.5t52.5 -218.5q0 -142 -64.5 -252.5t-181.5 -165.5q-54 -25 -113 -36t-171 -11h-158v-524h-287zM424 758h149q87 0 124.5 14.5t66.5 58.5q35 55 35 152q0 100 -51 156.5t-142 56.5h-182v-438z" />
<glyph unicode="Q" horiz-adv-x="1349" d="M55 707q0 230 85 405t237 260q131 70 295 70q284 0 448 -194t164 -529q0 -228 -74.5 -396.5t-210.5 -259.5q15 -3 35 -12.5t34.5 -18t36.5 -22.5t28 -18q95 -58 174 -58q27 0 59 3t50 5l18 3l-76 -187q-41 -24 -127 -24q-111 0 -262 100q-150 99 -289 143 q-160 0 -269.5 47.5t-191.5 153.5q-164 209 -164 529zM375 707q0 -366 127 -461q67 -49 170 -49q149 0 215.5 121t66.5 393q0 214 -36 329q-10 30 -28.5 59t-47.5 58t-74.5 46.5t-99.5 17.5q-72 0 -132.5 -34t-89.5 -91q-71 -133 -71 -389z" />
<glyph unicode="R" horiz-adv-x="1169" d="M127 0v1425l530 -2q189 0 303.5 -114.5t114.5 -302.5q0 -160 -92.5 -275.5t-224.5 -118.5q39 -31 59 -59q36 -45 121.5 -183.5t153.5 -253.5l67 -116h-338q-81 138 -133 233q-107 193 -153 261.5t-82 87.5q-24 10 -45 12v-594h-281zM408 809h96q92 0 139 10.5t76 36.5 q55 52 55 143q0 112 -64 153.5t-200 41.5h-100z" />
<glyph unicode="S" horiz-adv-x="1171" d="M23 98l106 224q110 -58 200.5 -86.5t190.5 -28.5q123 0 186.5 49.5t63.5 144.5q0 137 -186 185l-158 43q-107 30 -175 73t-106 107q-59 95 -59 217q0 195 142 317.5t368 122.5q130 0 255.5 -37.5t219.5 -105.5l-135 -205q-180 109 -332 109q-88 0 -143 -46t-55 -118 q0 -56 34 -87t123 -56l172 -48q175 -47 268 -156t93 -267q0 -217 -161 -348.5t-427 -131.5q-122 0 -250 34t-235 95z" />
<glyph unicode="T" d="M14 1186v237h1026l-47 -237h-340v-1186h-291v1186h-348z" />
<glyph unicode="U" horiz-adv-x="1245" d="M111 432v991h292v-936q0 -78 5 -109t20 -61q51 -98 195 -98q94 0 151 44t66 122q4 31 4 127v911h291v-958q0 -101 -4 -139t-19 -84q-12 -36 -34.5 -71.5t-63 -72t-93 -63.5t-128.5 -44.5t-164 -17.5q-332 0 -457 191q-36 56 -48.5 111t-12.5 157z" />
<glyph unicode="V" horiz-adv-x="1208" d="M-14 1423h313l236 -741q3 -11 29.5 -108.5t35.5 -139.5q1 5 25 103q21 68 57 182l242 704l301 2l-496 -1435h-260z" />
<glyph unicode="W" horiz-adv-x="1753" d="M23 1423h303l123 -561q26 -118 45 -235.5t24 -175.5l6 -58q25 232 74 455l127 575h313l131 -637q12 -59 27.5 -153t25.5 -159l9 -64q3 38 32 214t46 259l116 540h301l-344 -1435h-313l-127 579q-14 62 -25.5 126t-19 113t-12.5 87t-8 62.5t-3 25.5q-28 -201 -69 -410 l-117 -583h-326z" />
<glyph unicode="X" horiz-adv-x="1171" d="M-25 0l447 764l-385 663h350l193 -383l194 383h342l-371 -645l443 -782h-346l-256 502l-254 -502h-357z" />
<glyph unicode="Y" horiz-adv-x="1134" d="M-14 1427h344l184 -393q52 -116 72 -182q31 78 76 178l184 395h338l-455 -839v-586h-299v586z" />
<glyph unicode="Z" d="M35 0v201l524 866q17 29 39 61.5t36 49.5l13 18q-59 -10 -145 -10h-439l64 237h852v-206l-528 -891q-14 -23 -32.5 -48t-30.5 -39l-11 -14q84 8 141 8h479l-73 -233h-889z" />
<glyph unicode="[" horiz-adv-x="606" d="M135 -319v1818h430v-184h-184v-1450h184v-184h-430z" />
<glyph unicode="\" horiz-adv-x="833" d="M-6 1487l233 72l613 -1596l-232 -72z" />
<glyph unicode="]" horiz-adv-x="606" d="M41 -135h184v1450h-184v184h430v-1818h-430v184z" />
<glyph unicode="^" horiz-adv-x="1363" d="M164 702l368 748h299l369 -748h-291l-227 488l-229 -488h-289z" />
<glyph unicode="_" d="M0 -154h1024v-102h-1024v102z" />
<glyph unicode="`" horiz-adv-x="692" d="M61 1346l119 213l424 -267l-84 -151z" />
<glyph unicode="a" horiz-adv-x="1021" d="M66 289q0 183 125.5 271.5t377.5 88.5q33 0 62 -2v43q0 90 -25 123t-98 33q-126 0 -303 -119l-117 197q98 62 220 104.5t237 42.5q132 0 219.5 -47t118.5 -135q18 -55 18 -189l-6 -352v-18q0 -85 19 -128t79 -87l-145 -168q-48 21 -88 54.5t-60 72.5q-48 -45 -63 -56 q-79 -57 -211 -57q-174 0 -267 85.5t-93 242.5zM358 299q0 -61 34 -99t87 -38q79 0 144 71l4 226h-13q-145 0 -200.5 -33.5t-55.5 -126.5z" />
<glyph unicode="b" horiz-adv-x="1136" d="M109 0q16 37 21 77.5t5 145.5v971q0 182 -18 258l280 66q11 -99 11 -187v-248q0 -64 -7 -92q78 84 224 84q192 0 303.5 -143t111.5 -389q0 -323 -194 -482q-102 -81 -230 -81q-147 0 -233 96q-10 -45 -29 -76h-245zM412 281q24 -21 40.5 -33t47 -23.5t65.5 -11.5 q99 0 133 82q18 42 24.5 92.5t6.5 149.5q0 124 -12 178q-15 66 -54.5 99.5t-95.5 33.5q-80 0 -155 -84v-483z" />
<glyph unicode="c" horiz-adv-x="878" d="M74 516q0 173 58.5 295.5t156.5 189.5q53 35 123.5 56.5t136.5 21.5q107 0 203 -47q41 -21 102 -74l-133 -180q-88 82 -166 82q-93 0 -135.5 -84t-42.5 -268q0 -200 53 -264q47 -60 123 -60q89 0 188 86l17 15l125 -166q-144 -144 -353 -144q-216 0 -336 142.5 t-120 398.5z" />
<glyph unicode="d" horiz-adv-x="1134" d="M86 506q0 246 124.5 399.5t324.5 153.5q111 0 186 -60q-8 46 -8 156v361l272 -43v-1090q0 -294 39 -383h-246q-10 21 -16 61q-101 -88 -242 -88q-199 0 -316.5 144t-117.5 389zM391 504q0 -169 42 -234t149 -65q36 0 74.5 20t60.5 47v500q-77 68 -150 68 q-92 0 -134 -80.5t-42 -255.5z" />
<glyph unicode="e" d="M59 512q0 141 31 240.5t100 175.5q126 141 330 141q91 0 171.5 -29.5t131.5 -81.5q72 -74 106 -184t34 -274v-64h-607v-8q0 -121 58 -187.5t164 -66.5q140 0 266 105l106 -164q-180 -146 -395 -146q-226 0 -361 148t-135 395zM360 637h318v12q0 106 -35 162.5t-119 56.5 q-78 0 -121 -59t-43 -168v-4z" />
<glyph unicode="f" horiz-adv-x="583" d="M47 858v193h100q-10 72 -10 141q0 155 88.5 240.5t249.5 85.5q130 0 248 -66l-88 -170q-71 35 -113 35q-53 0 -83.5 -31.5t-30.5 -87.5v-147h266l-70 -193h-194v-858h-269v858h-94z" />
<glyph unicode="g" horiz-adv-x="1130" d="M57 -102q0 56 25 106h254q-12 -35 -12 -67q0 -63 50.5 -96.5t145.5 -33.5q122 0 174 35q30 19 48 48t18 59q0 31 -13.5 56.5t-35.5 37.5q-54 26 -144 31q-1 0 -39.5 1t-76.5 1q-170 3 -252 33q-38 15 -60 51q-20 42 -20 86q0 60 33 96q23 25 67 47t92 33 q-225 58 -225 291q0 161 120.5 257.5t321.5 96.5q86 0 189 -27q93 -22 129 -22q118 0 217 90l115 -174q-84 -78 -193 -78q-19 0 -72 6q62 -74 62 -172q0 -135 -110 -223t-277 -88q-21 0 -41 2q-57 -27 -83 -46t-26 -40q0 -25 45 -25l148 -2q120 -2 191 -22.5t126 -71.5 q90 -84 90 -223q0 -75 -28 -135t-75 -100t-111.5 -67t-134.5 -38.5t-148 -11.5q-278 0 -398 112q-86 80 -86 187zM362 711q0 -76 43 -113t119 -37q81 0 124.5 39t43.5 111q0 73 -44 114t-122 41t-121 -40.5t-43 -114.5z" />
<glyph unicode="h" horiz-adv-x="1134" d="M111 1452l280 66q19 -90 19 -256v-209q0 -19 -2 -52t-2 -36q54 51 135 81.5t161 30.5q97 0 172.5 -41.5t100.5 -107.5q17 -49 21.5 -80t4.5 -115v-733h-268v705q0 78 -24 110.5t-82 32.5q-50 0 -110 -27t-107 -69v-752h-279v1212q0 168 -20 240z" />
<glyph unicode="i" horiz-adv-x="512" d="M88 1337q0 70 50.5 120t121.5 50q69 0 117.5 -49.5t48.5 -120.5t-50 -120.5t-120 -49.5q-69 0 -118.5 50t-49.5 120zM119 0v1030l274 43v-1073h-274z" />
<glyph unicode="j" horiz-adv-x="512" d="M-10 -299q72 59 100 119q33 59 33 200v986l272 65v-1042q0 -227 -78 -326q-75 -97 -213 -154zM92 1337q0 71 50 121.5t120 50.5q69 0 119.5 -49.5t50.5 -118.5q0 -71 -51 -121.5t-121 -50.5t-119 49.5t-49 118.5z" />
<glyph unicode="k" horiz-adv-x="1026" d="M104 1454l277 68q16 -104 16 -340v-1182h-274v1182q0 143 -19 272zM403 594l269 459h329l-333 -443l411 -610h-323z" />
<glyph unicode="l" horiz-adv-x="550" d="M113 1452l280 64q15 -85 15 -273v-817q0 -135 3 -173t15 -60q16 -29 55 -29q17 0 31 4l47 -164q-76 -29 -164 -29q-87 0 -152.5 39t-90.5 105q-16 41 -20.5 83.5t-4.5 151.5v783q0 183 -14 315z" />
<glyph unicode="m" horiz-adv-x="1607" d="M100 999l248 68q24 -39 37 -106q109 106 256 106q160 0 254 -137q72 73 141 105t156 32q131 0 207 -66q44 -38 61 -93.5t17 -162.5v-745h-267v692q0 94 -16 122t-70 28q-38 0 -88 -24t-94 -64v-754h-260v682q0 98 -18.5 130t-75.5 32q-40 0 -88.5 -21t-91.5 -59v-764 h-269v731q0 113 -8.5 171t-30.5 97z" />
<glyph unicode="n" horiz-adv-x="1091" d="M98 1006l244 69q39 -67 39 -131q45 32 70.5 48.5t66 37t82 29t90.5 8.5q88 0 157.5 -42t94.5 -110q21 -58 21 -149v-766h-271v682q0 90 -19 122t-73 32q-85 0 -190 -95v-741h-275v760q0 142 -37 246z" />
<glyph unicode="o" horiz-adv-x="1060" d="M57 520q0 247 129.5 398t341.5 151q223 0 357 -158q63 -74 92 -165t29 -218q0 -134 -32 -231t-100 -174q-130 -146 -346 -146q-214 0 -342.5 148t-128.5 395zM362 526q0 -183 35 -264q18 -41 57.5 -63.5t82.5 -22.5q89 0 129.5 84t40.5 270q0 210 -56 281q-42 55 -119 55 q-36 0 -64 -12.5t-46.5 -37t-30.5 -54.5t-18 -71t-8.5 -79t-2.5 -86z" />
<glyph unicode="p" horiz-adv-x="1134" d="M127 1026l244 43q16 -58 18 -98q35 43 107 70.5t151 27.5q115 0 207 -63q195 -131 195 -453q0 -170 -31.5 -270.5t-114.5 -186.5q-113 -119 -280 -119q-126 0 -220 56l5 -86v-328l-265 -70v1213q0 163 -16 264zM410 256q73 -61 151 -61q102 0 145.5 76t43.5 255 q0 156 -27 232q-31 88 -131 88q-105 0 -182 -80v-510z" />
<glyph unicode="q" horiz-adv-x="1132" d="M90 508q0 188 50 305t159 193q109 69 225 69q82 0 155.5 -31.5t90.5 -74.5q1 18 3.5 31t6 23.5t11.5 27.5h227q-25 -111 -25 -310v-1126l-260 -70v398q0 32 1.5 60.5t4.5 45.5q-83 -74 -209 -74q-99 0 -190.5 41t-153.5 129q-27 39 -45.5 76.5t-29.5 81t-16 92.5t-5 113z M391 543q0 -86 7.5 -145.5t19.5 -91.5t31 -52q23 -25 57 -39t69 -14q43 0 87 24t71 56v493q-20 21 -44.5 37t-54 25.5t-59.5 9.5q-22 0 -44.5 -6t-41 -16.5t-32.5 -24.5q-40 -40 -53 -104.5t-13 -151.5z" />
<glyph unicode="r" horiz-adv-x="692" d="M102 1008l246 65q37 -64 43 -149q29 39 73 76.5t83 56.5q37 16 90 16q49 0 102 -22l-75 -242q-39 20 -80 20q-92 0 -168 -88v-741h-275v700q0 208 -39 308z" />
<glyph unicode="s" horiz-adv-x="952" d="M23 88l98 201q77 -47 172 -83t176 -36q59 0 99 34t40 85q0 53 -39 83.5t-123 45.5l-122 22q-51 9 -108 41t-85 66q-27 33 -43 84.5t-16 103.5q0 154 111 248t294 94q78 0 152.5 -16.5t117.5 -34t105 -47.5l-90 -184q-147 75 -258 75q-60 0 -96.5 -28t-36.5 -74 q0 -40 29.5 -63.5t101.5 -42.5l127 -33q89 -23 133 -50.5t76 -68.5q57 -72 57 -178q0 -163 -124 -264t-325 -101q-190 0 -423 121z" />
<glyph unicode="t" horiz-adv-x="622" d="M35 868v179h104q0 163 11 249l278 70q-16 -154 -16 -315h245l-69 -183h-176v-534q0 -100 24 -134t94 -34q29 0 99 20l35 -163q-116 -48 -224 -48q-104 0 -181.5 42.5t-100.5 111.5q-12 34 -15.5 62.5t-3.5 99.5v577h-104z" />
<glyph unicode="u" horiz-adv-x="1099" d="M137 352v672l271 51v-674q0 -132 22 -172q10 -22 37.5 -35.5t58.5 -13.5q51 0 103 31t67 70v737l262 55v-801q0 -114 64 -190l-195 -111q-55 40 -82 103q-104 -101 -276 -101q-110 0 -196.5 47.5t-112.5 122.5q-23 68 -23 209z" />
<glyph unicode="v" horiz-adv-x="983" d="M-4 1032l280 35l152 -473q43 -131 68 -252q15 115 63 266l141 441h287l-383 -1049h-227z" />
<glyph unicode="w" horiz-adv-x="1462" d="M18 1026l273 31l86 -400q12 -54 26.5 -135t23.5 -136l9 -54q25 186 76 364l98 348h258l84 -342q21 -87 40.5 -179.5t28.5 -141.5l9 -49q28 207 57 342l80 370h283l-299 -1044h-252l-94 360q-57 241 -60 254q-6 37 -16 105q-8 -57 -36.5 -183t-53.5 -224l-25 -97l-53 -215 h-256z" />
<glyph unicode="x" horiz-adv-x="985" d="M-49 0l387 557l-291 440l285 80q51 -85 76.5 -129t47 -87t50.5 -109q6 10 6 14q40 95 86 190l49 91h324l-312 -484l377 -563h-348l-110 193q-11 20 -35 66.5t-41 76.5l-6 10q-7 -12 -9 -18q-30 -69 -96 -183l-88 -145h-352z" />
<glyph unicode="y" d="M4 1030l281 33l182 -610l55 -217q21 116 33 167q4 17 41 146l158 498h288l-380 -1063q-53 -151 -98 -227.5t-103 -118.5q-107 -78 -254 -97l-94 180q115 31 170 70q47 35 75.5 82t61.5 127h-70q-9 27 -22 63.5t-21 59.5q-54 170 -55 172z" />
<glyph unicode="z" horiz-adv-x="876" d="M18 0v170l494 680h-453v192h779v-188l-463 -664h481l-65 -190h-773z" />
<glyph unicode="{" horiz-adv-x="757" d="M29 473v234q20 0 43 2.5t56.5 11t59 23t44 41.5t18.5 63v354q0 152 71.5 224.5t192.5 72.5h215v-233h-100q-44 0 -73 -12t-41 -34t-15.5 -40.5t-3.5 -44.5v-330q-1 -54 -15 -94t-32.5 -61t-50 -34t-52.5 -17t-55 -7v-4q33 -2 55 -5.5t53 -16.5t49.5 -34t32.5 -60.5 t15 -94.5v-332q0 -26 3.5 -44.5t15.5 -40.5t41 -34t73 -12h100v-233h-215q-117 0 -190.5 74t-73.5 225v352q0 36 -18.5 63t-44 41.5t-59 23t-56.5 11t-43 2.5z" />
<glyph unicode="|" horiz-adv-x="454" d="M98 -37v1585h258v-1585h-258z" />
<glyph unicode="}" horiz-adv-x="757" d="M29 -86h100q44 0 73 12t41 34t15.5 40.5t3.5 44.5v330q1 54 15 94t32.5 61t50 34t52.5 17t55 7v4q-33 2 -55 5.5t-53 16.5t-49.5 34t-32.5 60.5t-15 94.5v332q0 26 -3.5 44.5t-15.5 40.5t-41 34t-73 12h-100v233h221q113 0 185.5 -74t72.5 -225v-352q0 -36 18 -63 t43 -41.5t58 -23t56.5 -11t45.5 -2.5v-234q-22 0 -45.5 -2.5t-56.5 -11t-58 -23t-43 -41.5t-18 -63v-355q0 -152 -71.5 -224t-192.5 -72h-215v233z" />
<glyph unicode="~" horiz-adv-x="1363" d="M209 643q92 176 256 176q82 0 227 -65q14 -6 44.5 -20t47.5 -21t40.5 -16t42 -13t34.5 -4q36 0 70.5 22t52.5 43t48 62l9 12l74 -221q-92 -176 -256 -176q-82 0 -227 65q-14 6 -44.5 20t-47.5 21t-40.5 16t-42 13t-34.5 4q-36 0 -70.5 -22t-52.5 -43t-48 -62l-9 -12z" />
<glyph unicode="&#xa0;" horiz-adv-x="681" d="M0 0z" />
<glyph unicode="&#xa1;" horiz-adv-x="512" d="M82 1276q0 70 50.5 120t121.5 50q69 0 117.5 -49.5t48.5 -120.5q0 -70 -50 -120t-120 -50q-69 0 -118.5 50t-49.5 120zM90 -35l57 1002h209l62 -955z" />
<glyph unicode="&#xa2;" horiz-adv-x="878" d="M74 516q0 173 58.5 295.5t156.5 189.5q65 46 145 64l2 199h193v-193q43 0 123 -39q41 -21 102 -74l-133 -180q-88 82 -166 82q-93 0 -135.5 -84t-42.5 -268q0 -200 53 -264q47 -60 123 -60q89 0 188 86l17 15l125 -166q-110 -110 -254 -135v-211h-193v211 q-172 29 -267 168t-95 364z" />
<glyph unicode="&#xa3;" horiz-adv-x="1212" d="M98 0v233h197v406h-197v209h197v145q0 93 33.5 178.5t95.5 153.5t160.5 109t218.5 41q273 0 428 -140l-205 -219q-40 40 -92 64t-94 24q-65 0 -113.5 -21.5t-74.5 -59.5t-38 -81t-12 -94v-100h320v-209h-320v-406h518v-233h-1022z" />
<glyph unicode="&#xa4;" horiz-adv-x="915" d="M68 905l241 142q58 -97 82 -144q10 0 31 2t31 2q14 0 39.5 -3t37.5 -3q34 68 76 146l234 -142l-90 -139q55 -78 55 -211q0 -116 -60 -205l97 -145l-242 -142q-58 97 -82 144q-10 0 -30.5 -2t-30.5 -2q-14 0 -40 3t-38 3q-34 -68 -76 -146l-233 142l90 139q-54 76 -54 207 q0 123 58 209zM330 557q0 -114 22 -154q32 -51 103 -51q65 0 94 49t29 158q0 126 -41 164q-33 33 -86 33q-72 0 -96.5 -50.5t-24.5 -148.5z" />
<glyph unicode="&#xa5;" horiz-adv-x="1134" d="M-14 1427h344l184 -393q52 -116 72 -182q31 78 76 178l184 395h338l-312 -573l209 -2v-211h-323l-29 -53v-103h352v-211h-352v-272h-299v272h-346v211h346v103l-29 53h-317v211l205 2z" />
<glyph unicode="&#xa6;" horiz-adv-x="454" d="M98 -37v625h258v-625h-258zM98 924v624h258v-624h-258z" />
<glyph unicode="&#xa7;" horiz-adv-x="1212" d="M78 -51l262 129q18 -69 82.5 -105t140.5 -36q27 0 53.5 5t52.5 16t42 33t16 52q0 39 -34 70.5t-88.5 55.5t-120 49t-131 58t-120 74t-88.5 105.5t-34 144.5q0 193 178 303q-61 40 -95 101.5t-34 134.5q0 86 39.5 155t104 109.5t140.5 62t156 21.5q70 0 134.5 -11 t128 -35.5t115 -69.5t81.5 -107l-258 -148q-21 57 -73.5 91t-115.5 34q-54 0 -93.5 -28t-39.5 -80q0 -36 27.5 -66.5t72.5 -53t102.5 -47.5t117 -47.5t117 -56t102.5 -71t72.5 -93.5t27.5 -123q0 -83 -48.5 -155.5t-123.5 -110.5q53 -42 83 -107t30 -136q0 -77 -31.5 -141.5 t-82.5 -106.5t-117.5 -71.5t-135 -42.5t-137.5 -13q-357 0 -477 258zM393 657q0 -33 13 -59.5t36.5 -45t48 -31.5t54.5 -27q8 -3 12 -5l209 -96q70 42 70 125q0 89 -134 148l-237 112q-72 -41 -72 -121z" />
<glyph unicode="&#xa8;" horiz-adv-x="1021" d="M137 1300q0 67 49 115.5t117 48.5q66 0 113 -48t47 -116q0 -67 -48 -115t-116 -48q-66 0 -114 48t-48 115zM569 1300q0 68 48.5 116t117.5 48q66 0 113 -48t47 -116q0 -67 -48 -115t-116 -48q-67 0 -114.5 47.5t-47.5 115.5z" />
<glyph unicode="&#xa9;" horiz-adv-x="1638" d="M57 725q0 155 60.5 296t162.5 243t243 162.5t296 60.5t296 -60.5t243 -162.5t162.5 -243t60.5 -296t-60.5 -296t-162.5 -243t-243 -162.5t-296 -60.5t-296 60.5t-243 162.5t-162.5 243t-60.5 296zM266 725q0 -156 74 -289t201.5 -211t277.5 -78t277.5 78t201.5 211 t74 289t-74 289t-201.5 211t-277.5 78t-277.5 -78t-201.5 -211t-74 -289zM432 731q0 194 106 312t298 118q144 0 245 -77.5t123 -225.5h-192q-13 62 -56 90.5t-104 28.5q-98 0 -148.5 -64.5t-50.5 -177.5q0 -115 53 -186.5t142 -71.5q70 0 115 33t49 104h192 q-21 -153 -122.5 -237t-241.5 -84q-188 0 -298 124t-110 314z" />
<glyph unicode="&#xaa;" horiz-adv-x="819" d="M45 473v160h748v-160h-748zM70 993q0 271 379 271h45v30q0 68 -18.5 92.5t-74.5 24.5q-97 0 -227 -88l-88 147q73 47 165 79t179 32q98 0 163.5 -35.5t88.5 -101.5q14 -39 14 -141l-4 -265v-14q0 -63 15 -95.5t59 -64.5l-98 -127q-40 16 -74 42t-47 55q-50 -46 -91.5 -66 t-115.5 -20q-130 0 -200 64t-70 181zM289 1001q0 -45 26 -73.5t66 -28.5q56 0 106 53l5 170h-11q-109 0 -150.5 -25.5t-41.5 -95.5z" />
<glyph unicode="&#xab;" horiz-adv-x="1101" d="M37 510l325 479l187 -125l-238 -354l238 -354l-187 -125zM532 510l326 479l186 -125l-237 -354l237 -354l-186 -125z" />
<glyph unicode="&#xad;" horiz-adv-x="692" d="M102 442v238h492v-238h-492z" />
<glyph unicode="&#xae;" horiz-adv-x="1638" d="M57 725q0 155 60.5 296t162.5 243t243 162.5t296 60.5t296 -60.5t243 -162.5t162.5 -243t60.5 -296t-60.5 -296t-162.5 -243t-243 -162.5t-296 -60.5t-296 60.5t-243 162.5t-162.5 243t-60.5 296zM266 725q0 -156 74 -289t201.5 -211t277.5 -78t277.5 78t201.5 211 t74 289t-74 289t-201.5 211t-277.5 78t-277.5 -78t-201.5 -211t-74 -289zM526 334v799h283q340 0 340 -259q0 -199 -186 -223l204 -317h-215l-182 307h-35v-307h-209zM733 801h84q19 0 32 1t32 5.5t30.5 13t20 25.5t8.5 41q0 29 -11.5 47.5t-32.5 26.5t-38 10t-41 2h-84 v-172z" />
<glyph unicode="&#xaf;" horiz-adv-x="808" d="M82 1364v160h643v-160h-643z" />
<glyph unicode="&#xb0;" horiz-adv-x="808" d="M49 1087q0 160 95 258.5t251 98.5q165 0 262 -103q91 -91 91 -249q0 -169 -97 -263t-256 -94q-158 0 -252 95.5t-94 256.5zM272 1094q0 -112 23 -154q32 -51 102 -51q65 0 94 49t29 158q0 126 -41 164q-32 32 -86 32q-38 0 -62.5 -14.5t-37 -43t-17 -61t-4.5 -79.5z" />
<glyph unicode="&#xb4;" horiz-adv-x="692" d="M80 1292l424 267l119 -213l-459 -205z" />
<glyph unicode="&#xb5;" horiz-adv-x="1099" d="M137 -451v1475l271 51v-674q0 -132 22 -172q10 -22 37.5 -35.5t58.5 -13.5q51 0 103 31t67 70v737l262 55v-801q0 -114 64 -190l-195 -111q-55 40 -82 103q-104 -101 -276 -101q-40 0 -72 29q4 -40 4 -63v-320z" />
<glyph unicode="&#xb6;" horiz-adv-x="1228" d="M63 1065q0 198 127 291.5t351 93.5h551v-1708h-185v1561h-219v-1561h-184v950q-197 0 -319 105t-122 268z" />
<glyph unicode="&#xb7;" horiz-adv-x="622" d="M133 561q0 75 54 129.5t130 54.5q75 0 128 -54.5t53 -131.5q0 -74 -54.5 -127t-130.5 -53q-75 0 -127.5 53.5t-52.5 128.5z" />
<glyph unicode="&#xb8;" horiz-adv-x="878" d="M279 -358l61 129q6 -2 19 -8t20 -9t19 -7t23.5 -5.5t24.5 -1.5q21 0 36.5 12t15.5 25q0 41 -52 41q-10 0 -19.5 -2.5t-19.5 -6t-16 -4.5l-26 41l49 179l147 -13l-29 -78q74 -7 111 -52t37 -109q0 -78 -59.5 -129.5t-163.5 -51.5q-42 0 -92.5 15.5t-85.5 34.5z" />
<glyph unicode="&#xba;" horiz-adv-x="948" d="M94 473v160h748v-160h-748zM109 1153q0 186 97 299t255 113q168 0 263 -111t95 -295q0 -194 -98 -301q-95 -110 -260 -110q-160 0 -256 110.5t-96 294.5zM342 1159q0 -127 27 -186q12 -30 40.5 -48t57.5 -18q64 0 92.5 60.5t28.5 193.5q0 152 -39 203q-32 37 -84 37 q-38 0 -63.5 -19.5t-38 -56t-17 -75.5t-4.5 -91z" />
<glyph unicode="&#xbb;" horiz-adv-x="1101" d="M57 156l238 354l-238 354l187 125l325 -479l-325 -479zM553 156l238 354l-238 354l186 125l326 -479l-326 -479z" />
<glyph unicode="&#xbf;" d="M117 317q0 54 13.5 100.5t30.5 76.5t46.5 59t49 43t48.5 33q154 99 158 266q0 26 -4 72h235l11 -54q23 -123 -21 -216.5t-160 -176.5q-6 -4 -29 -20t-32 -23t-27 -23.5t-25.5 -29t-14.5 -31.5t-7 -39q0 -71 47.5 -106t120.5 -35q21 0 41.5 3t36 7t33.5 12t28.5 13.5 t26 16t21.5 15t19 15.5t15 12l125 -176q-23 -24 -55.5 -47.5t-81.5 -49.5t-117.5 -42.5t-142.5 -16.5q-163 0 -276 93t-113 249zM379 1276q0 70 50.5 120t121.5 50q69 0 117.5 -49.5t48.5 -120.5q0 -70 -49.5 -120t-120.5 -50q-69 0 -118.5 50t-49.5 120z" />
<glyph unicode="&#xc0;" horiz-adv-x="1167" d="M-27 0l467 1427h310l448 -1427h-307l-100 338h-418l-101 -338h-299zM236 1673l118 213l424 -266l-84 -152zM442 575h279q-9 12 -66 244t-69 295q-103 -414 -144 -539z" />
<glyph unicode="&#xc1;" horiz-adv-x="1167" d="M-27 0l467 1427h310l448 -1427h-307l-100 338h-418l-101 -338h-299zM377 1620l424 266l119 -213l-459 -205zM442 575h279q-9 12 -66 244t-69 295q-103 -414 -144 -539z" />
<glyph unicode="&#xc2;" horiz-adv-x="1167" d="M-27 0l467 1427h310l448 -1427h-307l-100 338h-418l-101 -338h-299zM213 1608l369 276l376 -276l-92 -150l-284 156l-277 -156zM442 575h279q-9 12 -66 244t-69 295q-103 -414 -144 -539z" />
<glyph unicode="&#xc3;" horiz-adv-x="1167" d="M-27 0l467 1427h310l448 -1427h-307l-100 338h-418l-101 -338h-299zM219 1671q56 69 112.5 102t141.5 33q42 0 78 -13t58.5 -28t57 -28t74.5 -13q24 0 42 4.5t35.5 16.5t27.5 21.5t31 31.5l88 -151q-56 -70 -112.5 -103t-141.5 -33q-42 0 -78 13t-58.5 28t-57.5 28 t-75 13q-24 0 -42 -4t-35 -16t-27 -21.5t-31 -31.5zM442 575h279q-9 12 -66 244t-69 295q-103 -414 -144 -539z" />
<glyph unicode="&#xc4;" horiz-adv-x="1167" d="M-27 0l467 1427h310l448 -1427h-307l-100 338h-418l-101 -338h-299zM188 1628q0 44 22.5 82t61 60t82.5 22q66 0 113 -48t47 -116t-48 -116t-116 -48q-66 0 -114 48.5t-48 115.5zM442 575h279q-9 12 -66 244t-69 295q-103 -414 -144 -539zM621 1628q0 68 48 116t117 48 q66 0 113 -48t47 -116t-48 -116t-116 -48q-67 0 -114 48t-47 116z" />
<glyph unicode="&#xc5;" horiz-adv-x="1167" d="M-27 0l467 1427h310l448 -1427h-307l-100 338h-418l-101 -338h-299zM371 1677q0 89 64.5 153t152.5 64t150.5 -64t62.5 -153t-64 -153t-153 -64q-88 0 -150.5 64t-62.5 153zM442 575h279q-9 12 -66 244t-69 295q-103 -414 -144 -539zM481 1677q0 -43 30.5 -73.5 t72.5 -30.5q43 0 73.5 30.5t30.5 73.5t-29.5 74t-70.5 31q-44 0 -75.5 -31t-31.5 -74z" />
<glyph unicode="&#xc6;" horiz-adv-x="1826" d="M41 0l848 1423h864l-37 -233h-487v-330h407v-233h-403v-381h539v-246h-830v338h-391l-191 -338h-319zM684 575h258q-6 217 0 340q1 28 5 70.5t7 70.5l4 29q-219 -416 -274 -510z" />
<glyph unicode="&#xc7;" horiz-adv-x="1095" d="M63 682q0 261 97 442q83 155 228 242.5t317 87.5q105 0 203 -31t157 -82l-129 -194q-109 80 -227 80q-72 0 -138 -33t-104 -90q-80 -119 -80 -367q0 -147 13.5 -235t45.5 -146q87 -159 275 -159q112 0 215 69q4 0 8.5 4t11 10t9.5 9l131 -180q-85 -69 -180 -101.5 t-216 -32.5h-34l-15 -41q74 -7 111 -52t37 -109q0 -78 -60 -129.5t-164 -51.5q-42 0 -92.5 15.5t-85.5 34.5l62 129q6 -2 19 -8t20 -9t19 -7t23.5 -5.5t24.5 -1.5q21 0 36 12t15 25q0 41 -51 41q-12 0 -29.5 -6.5t-25.5 -6.5l-27 41l41 150q-212 54 -336.5 240t-124.5 446z " />
<glyph unicode="&#xc8;" d="M139 0v1423h811l-37 -233h-487v-330h408v-233h-404v-381h539v-246h-830zM256 1673l119 213l424 -266l-84 -152z" />
<glyph unicode="&#xc9;" d="M139 0v1423h811l-37 -233h-487v-330h408v-233h-404v-381h539v-246h-830zM285 1620l424 266l118 -213l-458 -205z" />
<glyph unicode="&#xca;" d="M139 0v1423h811l-37 -233h-487v-330h408v-233h-404v-381h539v-246h-830zM172 1608l369 276l377 -276l-93 -150l-284 156l-277 -156z" />
<glyph unicode="&#xcb;" d="M139 0v1423h811l-37 -233h-487v-330h408v-233h-404v-381h539v-246h-830zM168 1628q0 67 49 115.5t117 48.5q66 0 113 -48t47 -116t-48 -116t-116 -48q-66 0 -114 48.5t-48 115.5zM600 1628q0 68 48.5 116t117.5 48q66 0 113 -48t47 -116t-48 -116t-116 -48 q-67 0 -114.5 48t-47.5 116z" />
<glyph unicode="&#xcc;" horiz-adv-x="585" d="M-41 1673l119 213l424 -266l-84 -152zM145 0v1423h299v-1423h-299z" />
<glyph unicode="&#xcd;" horiz-adv-x="585" d="M49 1620l424 266l119 -213l-459 -205zM145 0v1423h299v-1423h-299z" />
<glyph unicode="&#xce;" horiz-adv-x="585" d="M-74 1608l369 276l377 -276l-92 -150l-285 156l-277 -156zM145 0v1423h299v-1423h-299z" />
<glyph unicode="&#xcf;" horiz-adv-x="585" d="M-88 1628q0 67 49 115.5t117 48.5q66 0 113 -48t47 -116t-48 -116t-116 -48q-66 0 -114 48.5t-48 115.5zM145 0v1423h299v-1423h-299zM344 1628q0 68 48.5 116t117.5 48q66 0 113 -48t47 -116t-48 -116t-116 -48q-67 0 -114.5 48t-47.5 116z" />
<glyph unicode="&#xd1;" horiz-adv-x="1273" d="M143 0v1423h318l272 -569q104 -219 156 -403q-19 216 -23 391l-6 581h273v-1423h-299l-244 545q-166 378 -193 467q10 -120 15 -404l8 -608h-277zM301 1671q56 69 112.5 102t141.5 33q63 0 136 -41t132 -41q31 0 56 11t38 22.5t41 40.5l89 -151q-56 -70 -112.5 -103 t-141.5 -33q-63 0 -136.5 41t-132.5 41q-31 0 -56 -10.5t-38.5 -22t-40.5 -40.5z" />
<glyph unicode="&#xd2;" horiz-adv-x="1349" d="M55 707q0 230 85 405t237 260q131 70 295 70q284 0 448 -194t164 -529q0 -242 -81.5 -416t-235.5 -260q-65 -35 -130.5 -50.5t-154.5 -15.5q-161 0 -271 47.5t-192 153.5q-164 209 -164 529zM369 1673l118 213l424 -266l-84 -152zM375 707q0 -366 127 -461 q67 -49 170 -49q149 0 215.5 121t66.5 393q0 214 -36 329q-10 30 -28.5 59t-47.5 58t-74.5 46.5t-99.5 17.5q-72 0 -132.5 -34t-89.5 -91q-71 -133 -71 -389z" />
<glyph unicode="&#xd3;" horiz-adv-x="1349" d="M55 707q0 230 85 405t237 260q131 70 295 70q284 0 448 -194t164 -529q0 -242 -81.5 -416t-235.5 -260q-65 -35 -130.5 -50.5t-154.5 -15.5q-161 0 -271 47.5t-192 153.5q-164 209 -164 529zM375 707q0 -366 127 -461q67 -49 170 -49q149 0 215.5 121t66.5 393 q0 214 -36 329q-10 30 -28.5 59t-47.5 58t-74.5 46.5t-99.5 17.5q-72 0 -132.5 -34t-89.5 -91q-71 -133 -71 -389zM479 1620l424 266l119 -213l-459 -205z" />
<glyph unicode="&#xd4;" horiz-adv-x="1349" d="M55 707q0 230 85 405t237 260q131 70 295 70q284 0 448 -194t164 -529q0 -242 -81.5 -416t-235.5 -260q-65 -35 -130.5 -50.5t-154.5 -15.5q-161 0 -271 47.5t-192 153.5q-164 209 -164 529zM295 1608l369 276l376 -276l-92 -150l-284 156l-277 -156zM375 707 q0 -366 127 -461q67 -49 170 -49q149 0 215.5 121t66.5 393q0 214 -36 329q-10 30 -28.5 59t-47.5 58t-74.5 46.5t-99.5 17.5q-72 0 -132.5 -34t-89.5 -91q-71 -133 -71 -389z" />
<glyph unicode="&#xd5;" horiz-adv-x="1349" d="M55 707q0 230 85 405t237 260q131 70 295 70q284 0 448 -194t164 -529q0 -242 -81.5 -416t-235.5 -260q-65 -35 -130.5 -50.5t-154.5 -15.5q-161 0 -271 47.5t-192 153.5q-164 209 -164 529zM299 1671q56 69 112.5 102t141.5 33q63 0 136 -41t132 -41q31 0 56 11t38 22.5 t41 40.5l88 -151q-56 -70 -112 -103t-141 -33q-63 0 -136.5 41t-132.5 41q-31 0 -56 -10.5t-38.5 -22t-40.5 -40.5zM375 707q0 -366 127 -461q67 -49 170 -49q149 0 215.5 121t66.5 393q0 214 -36 329q-10 30 -28.5 59t-47.5 58t-74.5 46.5t-99.5 17.5q-72 0 -132.5 -34 t-89.5 -91q-71 -133 -71 -389z" />
<glyph unicode="&#xd6;" horiz-adv-x="1349" d="M55 707q0 230 85 405t237 260q131 70 295 70q284 0 448 -194t164 -529q0 -242 -81.5 -416t-235.5 -260q-65 -35 -130.5 -50.5t-154.5 -15.5q-161 0 -271 47.5t-192 153.5q-164 209 -164 529zM322 1628q0 67 48.5 115.5t116.5 48.5q66 0 113 -48t47 -116t-48.5 -116 t-115.5 -48q-66 0 -113.5 48.5t-47.5 115.5zM375 707q0 -366 127 -461q67 -49 170 -49q149 0 215.5 121t66.5 393q0 214 -36 329q-10 30 -28.5 59t-47.5 58t-74.5 46.5t-99.5 17.5q-72 0 -132.5 -34t-89.5 -91q-71 -133 -71 -389zM754 1628q0 68 48.5 116t117.5 48 q66 0 112.5 -48t46.5 -116t-48.5 -116t-115.5 -48t-114 48t-47 116z" />
<glyph unicode="&#xd7;" horiz-adv-x="1363" d="M195 315l305 306l-305 305l182 182l305 -305l305 305l182 -182l-305 -305l305 -306l-182 -182l-305 305l-305 -305z" />
<glyph unicode="&#xd8;" horiz-adv-x="1349" d="M55 707q0 230 85 405t237 260q131 70 295 70q168 0 297 -72l125 203l149 -84l-139 -225q180 -192 180 -545q0 -242 -81.5 -416t-235.5 -260q-65 -35 -130.5 -50.5t-154.5 -15.5q-189 0 -317 70l-138 -227l-149 84l155 256l-14 18q-164 209 -164 529zM375 707 q0 -164 24 -275l441 725q-71 64 -172 64q-72 0 -132.5 -34t-89.5 -91q-71 -133 -71 -389zM489 252l13 -6q67 -49 170 -49q149 0 215.5 121t66.5 393q0 158 -22 268z" />
<glyph unicode="&#xd9;" horiz-adv-x="1245" d="M111 432v991h292v-936q0 -78 5 -109t20 -61q51 -98 195 -98q94 0 151 44t66 122q4 31 4 127v911h291v-958q0 -101 -4 -139t-19 -84q-12 -36 -34.5 -71.5t-63 -72t-93 -63.5t-128.5 -44.5t-164 -17.5q-332 0 -457 191q-36 56 -48.5 111t-12.5 157zM307 1673l119 213 l424 -266l-84 -152z" />
<glyph unicode="&#xda;" horiz-adv-x="1245" d="M111 432v991h292v-936q0 -78 5 -109t20 -61q51 -98 195 -98q94 0 151 44t66 122q4 31 4 127v911h291v-958q0 -101 -4 -139t-19 -84q-12 -36 -34.5 -71.5t-63 -72t-93 -63.5t-128.5 -44.5t-164 -17.5q-332 0 -457 191q-36 56 -48.5 111t-12.5 157zM367 1620l424 266 l118 -213l-458 -205z" />
<glyph unicode="&#xdb;" horiz-adv-x="1245" d="M111 432v991h292v-936q0 -78 5 -109t20 -61q51 -98 195 -98q94 0 151 44t66 122q4 31 4 127v911h291v-958q0 -101 -4 -139t-19 -84q-12 -36 -34.5 -71.5t-63 -72t-93 -63.5t-128.5 -44.5t-164 -17.5q-332 0 -457 191q-36 56 -48.5 111t-12.5 157zM254 1608l369 276 l376 -276l-92 -150l-284 156l-277 -156z" />
<glyph unicode="&#xdc;" horiz-adv-x="1245" d="M111 432v991h292v-936q0 -78 5 -109t20 -61q51 -98 195 -98q94 0 151 44t66 122q4 31 4 127v911h291v-958q0 -101 -4 -139t-19 -84q-12 -36 -34.5 -71.5t-63 -72t-93 -63.5t-128.5 -44.5t-164 -17.5q-332 0 -457 191q-36 56 -48.5 111t-12.5 157zM250 1628q0 67 49 115.5 t117 48.5q66 0 112.5 -48t46.5 -116t-48 -116t-115 -48q-66 0 -114 48.5t-48 115.5zM682 1628q0 68 48.5 116t117.5 48q66 0 113 -48t47 -116t-48 -116t-116 -48q-67 0 -114.5 48t-47.5 116z" />
<glyph unicode="&#xdf;" horiz-adv-x="1202" d="M16 831v213h168v37q0 94 10.5 139t41.5 91q39 61 108.5 103.5t155.5 60.5q58 10 112 10q204 0 324.5 -91.5t120.5 -246.5q0 -169 -152 -256l-65 -39q-27 -14 -27 -37q0 -29 49 -51q23 -11 59 -27t49.5 -23t36 -20t39.5 -28.5t39 -38.5q86 -96 86 -232 q0 -189 -128.5 -305.5t-337.5 -116.5q-100 0 -154 25l61 188q34 -10 62 -10q94 0 145 54.5t51 154.5q0 42 -9 68t-34 55q-40 43 -75 65l-93 60q-88 57 -88 166q0 88 58 137l55 43q66 51 66 131q0 79 -35 121.5t-105 42.5q-54 0 -93.5 -34t-47.5 -87q-6 -31 -6 -143v-799 q0 -67 -13.5 -123t-27.5 -88h-279q12 40 26.5 118t14.5 142v571h-168z" />
<glyph unicode="&#xe0;" horiz-adv-x="1021" d="M66 289q0 183 125.5 271.5t377.5 88.5q33 0 62 -2v43q0 90 -25 123t-98 33q-126 0 -303 -119l-117 197q98 62 220 104.5t237 42.5q132 0 219.5 -47t118.5 -135q18 -55 18 -189l-6 -352v-18q0 -85 19 -128t79 -87l-145 -168q-48 21 -88 54.5t-60 72.5q-48 -45 -63 -56 q-79 -57 -211 -57q-174 0 -267 85.5t-93 242.5zM221 1346l119 213l424 -267l-84 -151zM358 299q0 -61 34 -99t87 -38q79 0 144 71l4 226h-13q-145 0 -200.5 -33.5t-55.5 -126.5z" />
<glyph unicode="&#xe1;" horiz-adv-x="1021" d="M66 289q0 183 125.5 271.5t377.5 88.5q33 0 62 -2v43q0 90 -25 123t-98 33q-126 0 -303 -119l-117 197q98 62 220 104.5t237 42.5q132 0 219.5 -47t118.5 -135q18 -55 18 -189l-6 -352v-18q0 -85 19 -128t79 -87l-145 -168q-48 21 -88 54.5t-60 72.5q-48 -45 -63 -56 q-79 -57 -211 -57q-174 0 -267 85.5t-93 242.5zM295 1292l424 267l119 -213l-459 -205zM358 299q0 -61 34 -99t87 -38q79 0 144 71l4 226h-13q-145 0 -200.5 -33.5t-55.5 -126.5z" />
<glyph unicode="&#xe2;" horiz-adv-x="1021" d="M66 289q0 183 125.5 271.5t377.5 88.5q33 0 62 -2v43q0 90 -25 123t-98 33q-126 0 -303 -119l-117 197q98 62 220 104.5t237 42.5q132 0 219.5 -47t118.5 -135q18 -55 18 -189l-6 -352v-18q0 -85 19 -128t79 -87l-145 -168q-48 21 -88 54.5t-60 72.5q-48 -45 -63 -56 q-79 -57 -211 -57q-174 0 -267 85.5t-93 242.5zM137 1280l369 276l377 -276l-92 -150l-285 156l-277 -156zM358 299q0 -61 34 -99t87 -38q79 0 144 71l4 226h-13q-145 0 -200.5 -33.5t-55.5 -126.5z" />
<glyph unicode="&#xe3;" horiz-adv-x="1021" d="M66 289q0 183 125.5 271.5t377.5 88.5q33 0 62 -2v43q0 90 -25 123t-98 33q-126 0 -303 -119l-117 197q98 62 220 104.5t237 42.5q132 0 219.5 -47t118.5 -135q18 -55 18 -189l-6 -352v-18q0 -85 19 -128t79 -87l-145 -168q-48 21 -88 54.5t-60 72.5q-48 -45 -63 -56 q-79 -57 -211 -57q-174 0 -267 85.5t-93 242.5zM152 1343q56 70 112.5 103t141.5 33q63 0 136 -41t132 -41q31 0 56 10.5t38.5 22t40.5 40.5l88 -151q-56 -69 -112.5 -102t-141.5 -33q-63 0 -136 41t-132 41q-31 0 -56 -11t-38 -22.5t-41 -40.5zM358 299q0 -61 34 -99 t87 -38q79 0 144 71l4 226h-13q-145 0 -200.5 -33.5t-55.5 -126.5z" />
<glyph unicode="&#xe4;" horiz-adv-x="1021" d="M41 289q0 183 126 271.5t378 88.5q32 0 61 -2v43q0 90 -25 123t-98 33q-126 0 -303 -119l-117 197q98 62 220 104.5t237 42.5q132 0 219.5 -47t118.5 -135q19 -58 19 -189l-7 -352v-18q0 -85 19.5 -128t79.5 -87l-146 -168q-105 45 -147 127q-63 -60 -120.5 -86.5 t-154.5 -26.5q-174 0 -267 85.5t-93 242.5zM100 1300q0 67 49 115.5t117 48.5q66 0 113 -48t47 -116q0 -67 -48 -115t-116 -48q-66 0 -114 48t-48 115zM334 299q0 -61 34 -99t87 -38q78 0 143 71l4 226h-12q-145 0 -200.5 -33.5t-55.5 -126.5zM532 1300q0 68 48.5 116 t117.5 48q66 0 113 -48t47 -116q0 -67 -48 -115t-116 -48q-67 0 -114.5 47.5t-47.5 115.5z" />
<glyph unicode="&#xe5;" horiz-adv-x="1021" d="M66 289q0 183 125.5 271.5t377.5 88.5q33 0 62 -2v43q0 90 -25 123t-98 33q-126 0 -303 -119l-117 197q98 62 220 104.5t237 42.5q132 0 219.5 -47t118.5 -135q18 -55 18 -189l-6 -352v-18q0 -85 19 -128t79 -87l-145 -168q-48 21 -88 54.5t-60 72.5q-48 -45 -63 -56 q-79 -57 -211 -57q-174 0 -267 85.5t-93 242.5zM313 1350q0 89 64.5 153t152.5 64t150.5 -64t62.5 -153t-64 -153t-153 -64q-88 0 -150.5 64t-62.5 153zM358 299q0 -61 34 -99t87 -38q79 0 144 71l4 226h-13q-145 0 -200.5 -33.5t-55.5 -126.5zM424 1350q0 -43 30.5 -74 t71.5 -31q43 0 74 31t31 74t-30 73.5t-71 30.5q-44 0 -75 -30.5t-31 -73.5z" />
<glyph unicode="&#xe6;" horiz-adv-x="1593" d="M66 289q0 183 125.5 271.5t377.5 88.5q9 0 27.5 -1t34.5 -1v43q0 90 -25 123t-98 33q-126 0 -303 -119l-117 197q98 62 220 104.5t237 42.5q146 0 266 -96q45 42 111.5 68t138.5 26q91 0 171.5 -29.5t131.5 -81.5q72 -74 105.5 -184t33.5 -274v-64h-606v-8 q0 -122 57.5 -188t163.5 -66q140 0 266 105l107 -164q-180 -146 -395 -146q-107 0 -172.5 22t-141.5 81q-5 4 -11.5 10t-14 14.5t-11.5 12.5q-9 -13 -21.5 -25t-26 -22.5t-23 -18t-22 -15.5t-15.5 -10q-79 -57 -211 -57q-174 0 -267 85.5t-93 242.5zM358 299q0 -61 34 -99 t87 -38q79 0 144 71l4 226h-13q-145 0 -200.5 -33.5t-55.5 -126.5zM901 637h318v12q0 106 -35 162.5t-119 56.5q-78 0 -121 -59t-43 -168v-4z" />
<glyph unicode="&#xe7;" horiz-adv-x="878" d="M74 516q0 173 58.5 295.5t156.5 189.5q53 35 123.5 56.5t136.5 21.5q107 0 203 -47q41 -21 102 -74l-133 -180q-88 82 -166 82q-93 0 -135.5 -84t-42.5 -268q0 -200 53 -264q47 -60 123 -60q89 0 188 86l17 15l125 -166q-144 -144 -336 -144l-15 -41q74 -7 111 -52 t37 -109q0 -78 -59.5 -129.5t-163.5 -51.5q-42 0 -92.5 15.5t-85.5 34.5l61 129q6 -2 19 -8t20 -9t19 -7t23.5 -5.5t24.5 -1.5q21 0 36.5 12t15.5 25q0 41 -52 41q-12 0 -29.5 -6.5t-25.5 -6.5l-26 41l38 144q-158 38 -243.5 174.5t-85.5 351.5z" />
<glyph unicode="&#xe8;" d="M59 512q0 141 31 240.5t100 175.5q126 141 330 141q91 0 171.5 -29.5t131.5 -81.5q72 -74 106 -184t34 -274v-64h-607v-8q0 -121 58 -187.5t164 -66.5q140 0 266 105l106 -164q-180 -146 -395 -146q-226 0 -361 148t-135 395zM184 1346l119 213l424 -267l-84 -151z M360 637h318v12q0 106 -35 162.5t-119 56.5q-78 0 -121 -59t-43 -168v-4z" />
<glyph unicode="&#xe9;" d="M59 512q0 141 31 240.5t100 175.5q126 141 330 141q91 0 171.5 -29.5t131.5 -81.5q72 -74 106 -184t34 -274v-64h-607v-8q0 -121 58 -187.5t164 -66.5q140 0 266 105l106 -164q-180 -146 -395 -146q-226 0 -361 148t-135 395zM289 1292l424 267l118 -213l-458 -205z M360 637h318v12q0 106 -35 162.5t-119 56.5q-78 0 -121 -59t-43 -168v-4z" />
<glyph unicode="&#xea;" d="M59 512q0 141 31 240.5t100 175.5q126 141 330 141q91 0 171.5 -29.5t131.5 -81.5q72 -74 106 -184t34 -274v-64h-607v-8q0 -121 58 -187.5t164 -66.5q140 0 266 105l106 -164q-180 -146 -395 -146q-226 0 -361 148t-135 395zM162 1280l368 276l377 -276l-92 -150 l-285 156l-276 -156zM360 637h318v12q0 106 -35 162.5t-119 56.5q-78 0 -121 -59t-43 -168v-4z" />
<glyph unicode="&#xeb;" d="M59 512q0 141 31 240.5t100 175.5q126 141 330 141q91 0 171.5 -29.5t131.5 -81.5q72 -74 106 -184t34 -274v-64h-607v-8q0 -121 58 -187.5t164 -66.5q140 0 266 105l106 -164q-180 -146 -395 -146q-226 0 -361 148t-135 395zM156 1300q0 67 49 115.5t117 48.5 q66 0 112.5 -48t46.5 -116q0 -67 -48 -115t-116 -48q-66 0 -113.5 48t-47.5 115zM360 637h318v12q0 106 -35 162.5t-119 56.5q-78 0 -121 -59t-43 -168v-4zM588 1300q0 68 48.5 116t117.5 48q66 0 112.5 -48t46.5 -116t-47.5 -115.5t-115.5 -47.5q-67 0 -114.5 47.5 t-47.5 115.5z" />
<glyph unicode="&#xec;" horiz-adv-x="512" d="M-80 1346l119 213l424 -267l-84 -151zM119 0v1030l274 43v-1073h-274z" />
<glyph unicode="&#xed;" horiz-adv-x="512" d="M25 1292l424 267l118 -213l-458 -205zM119 0v1030l274 43v-1073h-274z" />
<glyph unicode="&#xee;" horiz-adv-x="512" d="M-115 1280l369 276l377 -276l-92 -150l-285 156l-277 -156zM119 0v1030l274 43v-1073h-274z" />
<glyph unicode="&#xef;" horiz-adv-x="512" d="M-121 1300q0 67 49 115.5t117 48.5q66 0 113 -48t47 -116q0 -67 -48 -115t-116 -48q-66 0 -114 48t-48 115zM119 0v1030l274 43v-1073h-274zM311 1300q0 68 48.5 116t117.5 48q66 0 113 -48t47 -116q0 -67 -48 -115t-116 -48q-67 0 -114.5 47.5t-47.5 115.5z" />
<glyph unicode="&#xf1;" horiz-adv-x="1091" d="M98 1006l244 69q39 -67 39 -131q45 32 70.5 48.5t66 37t82 29t90.5 8.5q88 0 157.5 -42t94.5 -110q21 -58 21 -149v-766h-271v682q0 90 -19 122t-73 32q-85 0 -190 -95v-741h-275v760q0 142 -37 246zM180 1343q56 70 112.5 103t141.5 33q63 0 136 -41t132 -41q31 0 56 10 t39 22.5t41 40.5l88 -151q-56 -69 -112.5 -102t-141.5 -33q-63 0 -136.5 41t-132.5 41q-31 0 -56 -11t-38 -22.5t-41 -40.5z" />
<glyph unicode="&#xf2;" horiz-adv-x="1060" d="M57 520q0 247 129.5 398t341.5 151q223 0 357 -158q63 -74 92 -165t29 -218q0 -134 -32 -231t-100 -174q-130 -146 -346 -146q-214 0 -342.5 148t-128.5 395zM184 1346l119 213l424 -267l-84 -151zM362 526q0 -183 35 -264q18 -41 57.5 -63.5t82.5 -22.5q89 0 129.5 84 t40.5 270q0 210 -56 281q-42 55 -119 55q-36 0 -64 -12.5t-46.5 -37t-30.5 -54.5t-18 -71t-8.5 -79t-2.5 -86z" />
<glyph unicode="&#xf3;" horiz-adv-x="1060" d="M57 520q0 247 129.5 398t341.5 151q223 0 357 -158q63 -74 92 -165t29 -218q0 -134 -32 -231t-100 -174q-130 -146 -346 -146q-214 0 -342.5 148t-128.5 395zM295 1292l424 267l119 -213l-459 -205zM362 526q0 -183 35 -264q18 -41 57.5 -63.5t82.5 -22.5q89 0 129.5 84 t40.5 270q0 210 -56 281q-42 55 -119 55q-36 0 -64 -12.5t-46.5 -37t-30.5 -54.5t-18 -71t-8.5 -79t-2.5 -86z" />
<glyph unicode="&#xf4;" horiz-adv-x="1060" d="M57 520q0 247 129.5 398t341.5 151q223 0 357 -158q63 -74 92 -165t29 -218q0 -134 -32 -231t-100 -174q-130 -146 -346 -146q-214 0 -342.5 148t-128.5 395zM168 1280l369 276l376 -276l-92 -150l-284 156l-277 -156zM362 526q0 -183 35 -264q18 -41 57.5 -63.5 t82.5 -22.5q89 0 129.5 84t40.5 270q0 210 -56 281q-42 55 -119 55q-36 0 -64 -12.5t-46.5 -37t-30.5 -54.5t-18 -71t-8.5 -79t-2.5 -86z" />
<glyph unicode="&#xf5;" horiz-adv-x="1060" d="M57 520q0 247 129.5 398t341.5 151q223 0 357 -158q63 -74 92 -165t29 -218q0 -134 -32 -231t-100 -174q-130 -146 -346 -146q-214 0 -342.5 148t-128.5 395zM164 1343q56 70 112.5 103t141.5 33q63 0 136 -41t132 -41q31 0 56 10.5t38.5 22t40.5 40.5l88 -151 q-56 -69 -112.5 -102t-141.5 -33q-63 0 -136 41t-132 41q-31 0 -56 -11t-38 -22.5t-41 -40.5zM362 526q0 -183 35 -264q18 -41 57.5 -63.5t82.5 -22.5q89 0 129.5 84t40.5 270q0 210 -56 281q-42 55 -119 55q-36 0 -64 -12.5t-46.5 -37t-30.5 -54.5t-18 -71t-8.5 -79 t-2.5 -86z" />
<glyph unicode="&#xf6;" horiz-adv-x="1060" d="M57 520q0 247 129.5 398t341.5 151q223 0 357 -158q63 -74 92 -165t29 -218q0 -134 -32 -231t-100 -174q-130 -146 -346 -146q-214 0 -342.5 148t-128.5 395zM156 1300q0 67 49 115.5t117 48.5q66 0 112.5 -48t46.5 -116q0 -67 -48 -115t-116 -48q-66 0 -113.5 48 t-47.5 115zM362 526q0 -183 35 -264q18 -41 57.5 -63.5t82.5 -22.5q89 0 129.5 84t40.5 270q0 210 -56 281q-42 55 -119 55q-36 0 -64 -12.5t-46.5 -37t-30.5 -54.5t-18 -71t-8.5 -79t-2.5 -86zM588 1300q0 68 48.5 116t117.5 48q66 0 112.5 -48t46.5 -116t-47.5 -115.5 t-115.5 -47.5q-67 0 -114.5 47.5t-47.5 115.5z" />
<glyph unicode="&#xf7;" horiz-adv-x="1771" d="M47 858v193h100q0 21 -5 69t-5 72q0 155 88.5 240.5t249.5 85.5q130 0 248 -66l-88 -170q-71 35 -113 35q-53 0 -83.5 -31.5t-30.5 -87.5v-147h358q0 22 -5 71.5t-5 69.5q0 155 88.5 240.5t249.5 85.5q65 0 127.5 -14.5t99.5 -35.5l-88 -170q-43 19 -92 19 q-53 0 -84 -31.5t-31 -87.5v-147h627v-1051h-275v858h-350v-858h-268v858h-350v-858h-269v858h-94zM1348 1337q0 70 50.5 120t121.5 50q69 0 117.5 -49.5t48.5 -120.5t-50 -120.5t-120 -49.5q-69 0 -118.5 50t-49.5 120z" />
<glyph unicode="&#xf8;" horiz-adv-x="1060" d="M57 520q0 247 129.5 398t341.5 151q126 0 224 -49l120 197l127 -72l-133 -215l19 -19q63 -74 92 -165t29 -218q0 -134 -32 -231t-100 -174q-130 -146 -346 -146q-117 0 -211 48l-118 -197l-127 72l127 211q-142 151 -142 409zM362 526q0 -27 3.5 -73t3.5 -64l266 438 q-42 39 -103 39q-36 0 -64 -12.5t-46.5 -37t-30.5 -54.5t-18 -71t-8.5 -79t-2.5 -86zM432 213q46 -37 105 -37q89 0 129.5 84t40.5 270q0 25 -3.5 66t-3.5 57z" />
<glyph unicode="&#xf9;" horiz-adv-x="1099" d="M137 352v672l271 51v-674q0 -132 22 -172q10 -22 37.5 -35.5t58.5 -13.5q51 0 103 31t67 70v737l262 55v-801q0 -114 64 -190l-195 -111q-55 40 -82 103q-104 -101 -276 -101q-110 0 -196.5 47.5t-112.5 122.5q-23 68 -23 209zM264 1346l119 213l424 -267l-84 -151z" />
<glyph unicode="&#xfa;" horiz-adv-x="1099" d="M137 352v672l271 51v-674q0 -132 22 -172q10 -22 37.5 -35.5t58.5 -13.5q51 0 103 31t67 70v737l262 55v-801q0 -114 64 -190l-195 -111q-55 40 -82 103q-104 -101 -276 -101q-110 0 -196.5 47.5t-112.5 122.5q-23 68 -23 209zM295 1292l424 267l119 -213l-459 -205z" />
<glyph unicode="&#xfb;" horiz-adv-x="1099" d="M137 352v672l271 51v-674q0 -132 22 -172q10 -22 37.5 -35.5t58.5 -13.5q51 0 103 31t67 70v737l262 55v-801q0 -114 64 -190l-195 -111q-55 40 -82 103q-104 -101 -276 -101q-110 0 -196.5 47.5t-112.5 122.5q-23 68 -23 209zM180 1280l369 276l377 -276l-92 -150 l-285 156l-277 -156z" />
<glyph unicode="&#xfc;" horiz-adv-x="1099" d="M137 352v672l271 51v-674q0 -132 22 -172q10 -22 37.5 -35.5t58.5 -13.5q51 0 103 31t67 70v737l262 55v-801q0 -114 64 -190l-195 -111q-55 40 -82 103q-104 -101 -276 -101q-110 0 -196.5 47.5t-112.5 122.5q-23 68 -23 209zM174 1300q0 67 49 115.5t117 48.5 q66 0 113 -48t47 -116q0 -67 -48 -115t-116 -48q-66 0 -114 48t-48 115zM606 1300q0 68 48.5 116t117.5 48q66 0 113 -48t47 -116q0 -67 -48 -115t-116 -48q-67 0 -114.5 47.5t-47.5 115.5z" />
<glyph unicode="&#xff;" d="M4 1030l281 33l182 -610l55 -217q21 116 33 167q4 17 41 146l158 498h288l-380 -1063q-53 -151 -98 -227.5t-103 -118.5q-107 -78 -254 -97l-94 180q115 31 170 70q47 35 75.5 82t61.5 127h-70q-9 27 -22 63.5t-21 59.5q-54 170 -55 172zM174 1300q0 67 49 115.5 t117 48.5q66 0 113 -48t47 -116q0 -67 -48 -115t-116 -48q-66 0 -114 48t-48 115zM606 1300q0 68 48.5 116t117.5 48q66 0 113 -48t47 -116q0 -67 -48 -115t-116 -48q-67 0 -114.5 47.5t-47.5 115.5z" />
<glyph unicode="&#x152;" horiz-adv-x="1710" d="M55 715q0 284 144 485q116 158 346 205q95 18 260 18h811l-37 -233h-483v-330h403v-233h-403v-381h559v-246l-846 -2q-100 0 -162 2.5t-123.5 11t-104.5 25t-85 43t-84 67.5q-195 189 -195 568zM397 741q0 -91 5.5 -160t24 -139.5t50.5 -116t87 -74t130 -28.5 q30 0 63 5.5t51 10.5l17 5v915q-77 21 -153 21q-141 0 -208 -106.5t-67 -332.5z" />
<glyph unicode="&#x153;" horiz-adv-x="1638" d="M57 520q0 247 129.5 398t341.5 151q188 0 308 -108q117 108 299 108q91 0 171.5 -29.5t131.5 -81.5q72 -74 105.5 -184t33.5 -274v-64h-606v-8q0 -122 57.5 -188t163.5 -66q140 0 266 105l107 -164q-180 -146 -396 -146q-200 0 -329 117q-122 -109 -312 -109 q-214 0 -342.5 148t-128.5 395zM362 526q0 -183 35 -264q18 -41 57.5 -63.5t82.5 -22.5q89 0 129.5 84t40.5 270q0 210 -56 281q-42 55 -119 55q-36 0 -64 -12.5t-46.5 -37t-30.5 -54.5t-18 -71t-8.5 -79t-2.5 -86zM975 637h317v12q0 106 -34.5 162.5t-118.5 56.5 q-78 0 -121 -59t-43 -168v-4z" />
<glyph unicode="&#x178;" horiz-adv-x="1134" d="M-14 1427h344l184 -393q52 -116 72 -182q31 78 76 178l184 395h338l-455 -839v-586h-299v586zM229 1628q0 67 49 115.5t117 48.5q66 0 113 -48t47 -116t-48.5 -116t-115.5 -48q-66 0 -114 48.5t-48 115.5zM662 1628q0 68 48 116t117 48q66 0 113 -48t47 -116t-48.5 -116 t-115.5 -48t-114 48t-47 116z" />
<glyph unicode="&#x2c6;" horiz-adv-x="823" d="M39 1280l369 276l376 -276l-92 -150l-284 156l-277 -156z" />
<glyph unicode="&#x2dc;" horiz-adv-x="804" d="M29 1343q56 70 112.5 103t141.5 33q63 0 136 -41t132 -41q31 0 56 10.5t38.5 22t40.5 40.5l88 -151q-56 -69 -112.5 -102t-141.5 -33q-63 0 -136 41t-132 41q-31 0 -56 -11t-38 -22.5t-41 -40.5z" />
<glyph unicode="&#x2000;" horiz-adv-x="947" />
<glyph unicode="&#x2001;" horiz-adv-x="1894" />
<glyph unicode="&#x2002;" horiz-adv-x="947" />
<glyph unicode="&#x2003;" horiz-adv-x="1894" />
<glyph unicode="&#x2004;" horiz-adv-x="631" />
<glyph unicode="&#x2005;" horiz-adv-x="473" />
<glyph unicode="&#x2006;" horiz-adv-x="315" />
<glyph unicode="&#x2007;" horiz-adv-x="315" />
<glyph unicode="&#x2008;" horiz-adv-x="236" />
<glyph unicode="&#x2009;" horiz-adv-x="378" />
<glyph unicode="&#x200a;" horiz-adv-x="105" />
<glyph unicode="&#x2010;" horiz-adv-x="692" d="M102 442v238h492v-238h-492z" />
<glyph unicode="&#x2011;" horiz-adv-x="692" d="M102 442v238h492v-238h-492z" />
<glyph unicode="&#x2012;" horiz-adv-x="692" d="M102 442v238h492v-238h-492z" />
<glyph unicode="&#x2013;" horiz-adv-x="985" d="M-6 457v211h997v-211h-997z" />
<glyph unicode="&#x2014;" horiz-adv-x="1970" d="M254 457v211h1460v-211h-1460z" />
<glyph unicode="&#x2018;" horiz-adv-x="546" d="M68 1098q0 133 79.5 235.5t208.5 134.5l109 -114q-67 -15 -107.5 -47t-40.5 -70q0 -20 11.5 -33.5t42.5 -32.5q80 -45 80 -143q0 -73 -52.5 -124.5t-126.5 -51.5q-89 0 -146.5 70t-57.5 176z" />
<glyph unicode="&#x2019;" horiz-adv-x="546" d="M72 954q67 17 107 49t40 68q0 20 -11 33.5t-42 32.5q-80 48 -80 143q0 74 51.5 125t126.5 51q89 0 147 -69.5t58 -176.5q0 -132 -80 -234t-209 -134z" />
<glyph unicode="&#x201a;" horiz-adv-x="546" d="M68 -182q67 15 107 47t40 69q0 20 -11 33.5t-42 32.5q-80 48 -80 143q0 73 52 124.5t126 51.5q89 0 147 -69t58 -176q0 -133 -80 -236t-209 -135z" />
<glyph unicode="&#x201c;" horiz-adv-x="1001" d="M68 1100q0 133 79.5 235.5t208.5 134.5l109 -114q-67 -15 -107.5 -47t-40.5 -70q0 -20 11 -33t43 -32q80 -48 80 -144q0 -73 -53 -124.5t-128 -51.5q-88 0 -145 69.5t-57 176.5zM530 1100q0 133 79.5 235.5t207.5 134.5l109 -114q-66 -15 -106 -47t-40 -70q0 -20 11 -33 t43 -32q79 -49 79 -144q0 -73 -52.5 -124.5t-127.5 -51.5q-89 0 -146 69.5t-57 176.5z" />
<glyph unicode="&#x201d;" horiz-adv-x="1001" d="M72 954q67 17 107 49t40 68q0 20 -11 33.5t-42 32.5q-80 48 -80 143q0 74 51.5 125t126.5 51q89 0 147 -69.5t58 -176.5q0 -132 -80 -234t-209 -134zM535 954q66 17 105.5 48.5t39.5 68.5q0 20 -10.5 33.5t-40.5 32.5q-80 48 -80 143q0 74 51.5 125t126.5 51 q89 0 146 -69.5t57 -176.5q0 -132 -79 -234t-208 -134z" />
<glyph unicode="&#x201e;" horiz-adv-x="995" d="M68 -182q67 15 107 47t40 69q0 20 -11 33.5t-42 32.5q-80 48 -80 143q0 73 52 124.5t126 51.5q89 0 147 -69t58 -176q0 -133 -80 -236t-209 -135zM530 -182q66 15 106 47t40 69q0 20 -10.5 33.5t-40.5 32.5q-80 48 -80 143q0 74 51.5 125t126.5 51q89 0 147 -69t58 -176 q0 -133 -80 -236t-209 -135z" />
<glyph unicode="&#x2022;" d="M150 725q0 151 105.5 256.5t256.5 105.5t256.5 -105.5t105.5 -256.5t-105.5 -257t-256.5 -106t-256.5 106t-105.5 257z" />
<glyph unicode="&#x2026;" horiz-adv-x="1531" d="M74 150q0 74 52 126t126 52q75 0 128.5 -52.5t53.5 -125.5q0 -75 -53 -129t-127 -54q-75 0 -127.5 54t-52.5 129zM586 150q0 74 52 126t126 52q75 0 128.5 -52.5t53.5 -125.5q0 -75 -53 -129t-127 -54q-75 0 -127.5 54t-52.5 129zM1098 150q0 74 52 126t126 52 q75 0 128.5 -52.5t53.5 -125.5q0 -75 -53 -129t-127 -54q-75 0 -127.5 54t-52.5 129z" />
<glyph unicode="&#x202f;" horiz-adv-x="378" />
<glyph unicode="&#x2039;" horiz-adv-x="606" d="M37 510l325 479l187 -125l-238 -354l238 -354l-187 -125z" />
<glyph unicode="&#x203a;" horiz-adv-x="606" d="M57 156l238 354l-238 354l187 125l325 -479l-325 -479z" />
<glyph unicode="&#x205f;" horiz-adv-x="473" />
<glyph unicode="&#x2122;" horiz-adv-x="2048" d="M82 1253v197h709v-197h-244v-647h-221v647h-244zM971 606v844h297l200 -549l201 549h297v-844h-221v549h-4l-201 -549h-143l-201 549h-4v-549h-221z" />
<glyph unicode="&#xe000;" horiz-adv-x="1075" d="M0 0v1075h1075v-1075h-1075z" />
<glyph unicode="&#xfb01;" horiz-adv-x="1155" d="M41 858v193h100q0 21 -5 69t-5 72q0 155 88.5 240.5t249.5 85.5q65 0 127.5 -14.5t99.5 -35.5l-88 -170q-43 19 -92 19q-53 0 -84 -31.5t-31 -87.5v-147h627v-1051h-274v858h-351v-858h-268v858h-94zM723 1337q0 70 50.5 120t121.5 50q69 0 117.5 -49.5t48.5 -120.5 t-49.5 -120.5t-120.5 -49.5q-69 0 -118.5 50t-49.5 120z" />
<glyph unicode="&#xfb02;" horiz-adv-x="1177" d="M47 858v193h94q0 21 -5 69t-5 72q0 155 88.5 240.5t249.5 85.5q65 0 127.5 -14.5t99.5 -35.5l-88 -170q-43 19 -92 19q-53 0 -84 -31.5t-31 -87.5v-147h252l-69 -193h-174v-858h-269v858h-94zM739 1452l281 64q14 -80 14 -273v-817q0 -132 3.5 -171.5t15.5 -61.5 q16 -29 55 -29q17 0 31 4l47 -164q-76 -29 -164 -29t-153.5 39t-90.5 105q-15 40 -19.5 82t-4.5 153v783q0 174 -15 315z" />
</font>
</defs>
</svg>
